<svg width="732" height="267" viewBox="0 0 732 267" fill="none" xmlns="http://www.w3.org/2000/svg">
<g clip-path="url(#clip0)">
<path d="M11.95 251.34V253.65H7.41V266.48H4.57V253.67H0V251.34H11.95Z" fill="white"/>
<path d="M32.99 266.5H30.16V259.88H23.05V266.5H20.22V251.34H23.05V257.85H30.16V251.34H32.99V266.5Z" fill="white"/>
<path d="M52.2 251.34V253.58H45.47V257.78H50.77V259.94H45.47V264.23H52.2V266.48H42.65V251.34H52.2Z" fill="white"/>
<path d="M80.41 254.11C80.3465 254.234 80.258 254.343 80.15 254.43C80.0471 254.5 79.9244 254.535 79.8 254.53C79.6289 254.519 79.4637 254.464 79.32 254.37L78.71 254C78.4403 253.857 78.1594 253.737 77.87 253.64C77.5072 253.529 77.1294 253.475 76.75 253.48C76.4117 253.479 76.075 253.526 75.75 253.62C75.4807 253.706 75.2297 253.842 75.01 254.02C74.8171 254.182 74.6661 254.387 74.57 254.62C74.4676 254.864 74.4165 255.126 74.42 255.39C74.4103 255.713 74.5167 256.029 74.72 256.28C74.9393 256.535 75.2081 256.742 75.51 256.89C75.8732 257.064 76.2473 257.214 76.63 257.34L77.92 257.76C78.3597 257.908 78.7904 258.082 79.21 258.28C79.6208 258.473 79.9987 258.73 80.33 259.04C80.6668 259.352 80.9357 259.73 81.12 260.15C81.3331 260.659 81.4354 261.208 81.42 261.76C81.4227 262.416 81.3041 263.067 81.07 263.68C80.8445 264.262 80.5044 264.792 80.07 265.24C79.596 265.714 79.0315 266.088 78.41 266.34C77.6964 266.603 76.9404 266.732 76.18 266.72C75.7033 266.719 75.2278 266.672 74.76 266.58C74.2982 266.486 73.8462 266.349 73.41 266.17C72.986 266.002 72.5805 265.791 72.2 265.54C71.8354 265.311 71.4996 265.039 71.2 264.73L72.02 263.38C72.0935 263.277 72.1892 263.191 72.3 263.13C72.4045 263.063 72.5261 263.029 72.65 263.03C72.8583 263.042 73.0576 263.119 73.22 263.25C73.42 263.39 73.66 263.55 73.94 263.72C74.2555 263.915 74.5907 264.076 74.94 264.2C75.3705 264.35 75.8244 264.421 76.28 264.41C76.9519 264.454 77.6167 264.251 78.15 263.84C78.3783 263.635 78.5566 263.381 78.6711 263.097C78.7855 262.813 78.833 262.506 78.81 262.2C78.8312 261.842 78.7249 261.487 78.51 261.2C78.2946 260.936 78.0252 260.721 77.72 260.57C77.3641 260.382 76.9884 260.235 76.6 260.13L75.32 259.74C74.883 259.601 74.4554 259.434 74.04 259.24C73.6271 259.05 73.2487 258.794 72.92 258.48C72.5797 258.144 72.3109 257.743 72.13 257.3C71.914 256.743 71.812 256.148 71.83 255.55C71.8321 254.989 71.9475 254.434 72.1691 253.918C72.3908 253.403 72.7142 252.938 73.12 252.55C73.5667 252.119 74.0932 251.779 74.67 251.55C75.3482 251.299 76.0671 251.177 76.79 251.19C77.6319 251.18 78.4686 251.323 79.26 251.61C79.9752 251.867 80.6316 252.265 81.19 252.78L80.41 254.11Z" fill="white"/>
<path d="M102.89 266.5H100.06V259.88H92.95V266.5H90.12V251.34H92.95V257.85H100.06V251.34H102.89V266.5Z" fill="white"/>
<path d="M126.99 258.93C127.002 259.982 126.816 261.027 126.44 262.01C126.098 262.933 125.564 263.774 124.875 264.477C124.186 265.18 123.356 265.729 122.44 266.09C120.418 266.863 118.182 266.863 116.16 266.09C115.247 265.724 114.421 265.172 113.732 264.469C113.044 263.767 112.508 262.93 112.16 262.01C111.784 261.027 111.598 259.982 111.61 258.93C111.599 257.875 111.785 256.827 112.16 255.84C112.511 254.923 113.047 254.088 113.735 253.387C114.423 252.687 115.249 252.136 116.16 251.77C117.155 251.372 118.219 251.175 119.29 251.19C120.021 251.187 120.75 251.275 121.46 251.45C122.115 251.619 122.743 251.874 123.33 252.21C123.889 252.531 124.4 252.929 124.85 253.39C125.298 253.859 125.684 254.383 126 254.95C126.318 255.536 126.556 256.161 126.71 256.81C126.891 257.502 126.985 258.214 126.99 258.93V258.93ZM124.11 258.93C124.123 258.17 124.008 257.412 123.77 256.69C123.557 256.067 123.216 255.495 122.77 255.01C122.356 254.549 121.843 254.186 121.27 253.95C119.98 253.468 118.56 253.468 117.27 253.95C116.695 254.189 116.18 254.551 115.76 255.01C115.314 255.495 114.974 256.067 114.76 256.69C114.32 258.147 114.32 259.703 114.76 261.16C114.974 261.783 115.314 262.355 115.76 262.84C116.183 263.281 116.699 263.623 117.27 263.84C118.557 264.336 119.983 264.336 121.27 263.84C121.84 263.625 122.353 263.283 122.77 262.84C123.216 262.355 123.557 261.783 123.77 261.16C124.008 260.441 124.123 259.687 124.11 258.93V258.93Z" fill="white"/>
<path d="M138.57 260.58V266.5H135.76V251.34H140.41C141.301 251.32 142.19 251.428 143.05 251.66C143.708 251.831 144.323 252.133 144.86 252.55C145.304 252.918 145.648 253.393 145.86 253.93C146.093 254.487 146.209 255.086 146.2 255.69C146.201 256.182 146.123 256.672 145.97 257.14C145.826 257.582 145.609 257.998 145.33 258.37C145.034 258.756 144.68 259.093 144.28 259.37C143.84 259.658 143.362 259.884 142.86 260.04C143.229 260.256 143.544 260.554 143.78 260.91L147.57 266.5H145.03C144.827 266.505 144.627 266.455 144.45 266.355C144.274 266.254 144.129 266.107 144.03 265.93L140.85 261.09C140.754 260.927 140.616 260.792 140.45 260.7C140.253 260.608 140.037 260.567 139.82 260.58H138.57ZM138.57 258.58H140.33C140.801 258.588 141.27 258.52 141.72 258.38C142.09 258.273 142.432 258.085 142.72 257.83C142.969 257.599 143.164 257.316 143.29 257C143.413 256.66 143.474 256.301 143.47 255.94C143.49 255.607 143.433 255.274 143.303 254.967C143.173 254.66 142.973 254.387 142.72 254.17C142.039 253.708 141.221 253.489 140.4 253.55H138.59L138.57 258.58Z" fill="white"/>
<path d="M165.69 251.34V253.65H161.12V266.48H158.31V253.67H153.74V251.34H165.69Z" fill="white"/>
<path d="M183.52 251.34V253.58H176.79V257.78H182.09V259.94H176.79V264.23H183.52V266.48H173.96V251.34H183.52Z" fill="white"/>
<path d="M200.41 254.11C200.341 254.233 200.249 254.341 200.14 254.43C200.038 254.501 199.915 254.537 199.79 254.53C199.619 254.519 199.454 254.464 199.31 254.37L198.7 254C198.433 253.859 198.155 253.739 197.87 253.64C197.504 253.53 197.123 253.476 196.74 253.48C196.402 253.477 196.065 253.524 195.74 253.62C195.47 253.704 195.218 253.84 195 254.02C194.801 254.178 194.646 254.385 194.55 254.62C194.448 254.864 194.396 255.126 194.4 255.39C194.39 255.713 194.497 256.029 194.7 256.28C194.921 256.532 195.19 256.74 195.49 256.89C195.854 257.062 196.228 257.213 196.61 257.34L197.9 257.76C198.34 257.908 198.77 258.082 199.19 258.28C199.601 258.473 199.979 258.73 200.31 259.04C200.647 259.352 200.916 259.73 201.1 260.15C201.313 260.659 201.415 261.208 201.4 261.76C201.403 262.416 201.284 263.067 201.05 263.68C200.828 264.263 200.487 264.795 200.05 265.24C199.574 265.695 199.014 266.052 198.4 266.29C197.686 266.553 196.93 266.682 196.17 266.67C195.219 266.671 194.278 266.484 193.4 266.12C192.976 265.952 192.571 265.741 192.19 265.49C191.827 265.259 191.492 264.987 191.19 264.68L192.02 263.33C192.092 263.229 192.184 263.144 192.29 263.08C192.395 263.013 192.516 262.979 192.64 262.98C192.848 262.992 193.048 263.069 193.21 263.2C193.41 263.34 193.65 263.5 193.93 263.67C194.245 263.865 194.581 264.026 194.93 264.15C195.364 264.299 195.821 264.371 196.28 264.36C196.949 264.402 197.61 264.199 198.14 263.79C198.368 263.585 198.547 263.331 198.661 263.047C198.775 262.763 198.823 262.456 198.8 262.15C198.821 261.792 198.715 261.437 198.5 261.15C198.285 260.886 198.015 260.671 197.71 260.52C197.354 260.332 196.978 260.185 196.59 260.08L195.31 259.69C194.876 259.553 194.451 259.386 194.04 259.19C193.626 259.002 193.247 258.745 192.92 258.43C192.577 258.094 192.305 257.693 192.12 257.25C191.912 256.691 191.814 256.096 191.83 255.5C191.833 254.94 191.948 254.386 192.168 253.871C192.387 253.356 192.708 252.89 193.11 252.5C193.557 252.069 194.083 251.729 194.66 251.5C195.338 251.249 196.057 251.127 196.78 251.14C197.622 251.13 198.459 251.273 199.25 251.56C199.966 251.814 200.623 252.213 201.18 252.73L200.41 254.11Z" fill="white"/>
<path d="M220.64 251.34V253.65H216.08V266.48H213.26V253.67H208.69V251.34H220.64Z" fill="white"/>
<path d="M240.24 251.34H242.6C242.816 251.329 243.03 251.389 243.21 251.51C243.369 251.622 243.485 251.784 243.54 251.97L246.12 261.03C246.17 261.26 246.23 261.5 246.28 261.76C246.33 262.02 246.38 262.3 246.44 262.59C246.5 262.3 246.56 262.02 246.62 261.76C246.68 261.5 246.76 261.26 246.84 261.03L249.84 251.97C249.911 251.798 250.025 251.647 250.17 251.53C250.347 251.402 250.561 251.335 250.78 251.34H251.6C251.814 251.326 252.026 251.386 252.2 251.51C252.352 251.633 252.472 251.791 252.55 251.97L255.55 261.03C255.712 261.522 255.846 262.023 255.95 262.53C256.037 261.977 256.137 261.477 256.25 261.03L258.83 251.97C258.881 251.787 258.994 251.628 259.15 251.52C259.328 251.395 259.543 251.332 259.76 251.34H261.97L257.27 266.48H254.72L251.41 256.13C251.358 255.989 251.315 255.846 251.28 255.7C251.23 255.55 251.19 255.39 251.15 255.22C251.122 255.383 251.082 255.543 251.03 255.7L250.9 256.13L247.56 266.48H245L240.24 251.34Z" fill="white"/>
<path d="M286.22 266.5H284.04C283.826 266.506 283.616 266.443 283.44 266.32C283.291 266.196 283.175 266.039 283.1 265.86L281.97 262.77H275.69L274.56 265.86C274.499 266.035 274.388 266.188 274.24 266.3C274.07 266.435 273.857 266.506 273.64 266.5H271.41L277.41 251.34H280.28L286.22 266.5ZM276.42 260.78H281.24L279.4 255.78C279.31 255.56 279.22 255.3 279.12 254.99C279.02 254.68 278.92 254.36 278.83 253.99C278.73 254.35 278.63 254.68 278.54 254.99C278.45 255.3 278.35 255.56 278.26 255.79L276.42 260.78Z" fill="white"/>
<path d="M303.2 260.63V266.5H300.41V260.63L294.87 251.34H297.35C297.558 251.324 297.764 251.384 297.93 251.51C298.082 251.634 298.207 251.787 298.3 251.96L301.06 257.02C301.22 257.33 301.36 257.62 301.49 257.88C301.62 258.14 301.72 258.41 301.82 258.67C301.91 258.4 302.01 258.14 302.13 257.87C302.25 257.6 302.38 257.32 302.54 257.02L305.29 251.96C305.379 251.796 305.498 251.65 305.64 251.53C305.804 251.398 306.01 251.33 306.22 251.34H308.72L303.2 260.63Z" fill="white"/>
<path d="M345.41 251.34V253.65H340.85V266.48H338.03V253.67H333.41V251.34H345.41Z" fill="white"/>
<path d="M371.79 258.93C371.802 259.982 371.616 261.027 371.24 262.01C370.891 262.927 370.36 263.763 369.68 264.47C368.995 265.173 368.171 265.724 367.26 266.09C365.242 266.864 363.008 266.864 360.99 266.09C360.077 265.724 359.251 265.172 358.562 264.469C357.874 263.767 357.338 262.93 356.99 262.01C356.614 261.027 356.428 259.982 356.44 258.93C356.429 257.875 356.615 256.827 356.99 255.84C357.341 254.923 357.877 254.088 358.565 253.387C359.253 252.687 360.079 252.136 360.99 251.77C361.985 251.372 363.049 251.175 364.12 251.19C364.851 251.187 365.58 251.275 366.29 251.45C366.942 251.617 367.568 251.873 368.15 252.21C368.714 252.528 369.229 252.926 369.68 253.39C370.128 253.859 370.514 254.383 370.83 254.95C371.148 255.536 371.386 256.161 371.54 256.81C371.711 257.504 371.795 258.216 371.79 258.93V258.93ZM368.91 258.93C368.923 258.17 368.808 257.412 368.57 256.69C368.357 256.067 368.016 255.495 367.57 255.01C367.156 254.549 366.643 254.186 366.07 253.95C364.78 253.468 363.36 253.468 362.07 253.95C361.494 254.186 360.978 254.548 360.56 255.01C360.111 255.492 359.77 256.065 359.56 256.69C359.12 258.147 359.12 259.703 359.56 261.16C359.77 261.785 360.111 262.358 360.56 262.84C360.98 263.284 361.497 263.627 362.07 263.84C363.357 264.336 364.783 264.336 366.07 263.84C366.64 263.625 367.153 263.283 367.57 262.84C368.016 262.355 368.357 261.783 368.57 261.16C368.808 260.441 368.923 259.687 368.91 258.93Z" fill="white"/>
<path d="M416.77 266.5H414.59C414.378 266.51 414.17 266.446 414 266.32C413.845 266.2 413.725 266.041 413.65 265.86L412.52 262.77H406.25L405.12 265.86C405.053 266.035 404.939 266.187 404.79 266.3C404.623 266.433 404.414 266.504 404.2 266.5H401.99L407.99 251.36H410.86L416.77 266.5ZM406.97 260.78H411.8L409.96 255.78C409.849 255.522 409.752 255.259 409.67 254.99C409.57 254.69 409.48 254.36 409.38 253.99C409.28 254.35 409.19 254.68 409.09 254.99C408.99 255.3 408.9 255.56 408.81 255.79L406.97 260.78Z" fill="white"/>
<path d="M445.47 251.34C445.549 251.349 445.626 251.369 445.7 251.4C445.768 251.44 445.832 251.487 445.89 251.54L446.1 251.78L454.04 261.91C454.04 261.67 454.04 261.43 453.99 261.19C453.94 260.95 453.99 260.73 453.99 260.53V251.34H456.41V266.48H454.96C454.768 266.484 454.577 266.447 454.4 266.37C454.231 266.28 454.085 266.153 453.97 266L446.06 255.91C446.06 256.14 446.06 256.36 446.11 256.58C446.16 256.8 446.11 257 446.11 257.18V266.48H443.63V251.34H445.42H445.47Z" fill="white"/>
<path d="M479.84 251.34V253.58H473.12V257.78H478.41V259.94H473.11V264.23H479.83V266.48H470.28V251.34H479.84Z" fill="white"/>
<path d="M491.3 251.34H493.66C493.876 251.329 494.09 251.389 494.27 251.51C494.434 251.616 494.552 251.78 494.6 251.97L497.18 261.03C497.23 261.26 497.29 261.5 497.34 261.76C497.39 262.02 497.45 262.3 497.5 262.59C497.56 262.3 497.62 262.02 497.69 261.76C497.747 261.513 497.817 261.269 497.9 261.03L500.9 251.97C500.967 251.795 501.081 251.643 501.23 251.53C501.401 251.398 501.614 251.331 501.83 251.34H502.66C502.87 251.327 503.079 251.387 503.25 251.51C503.405 251.63 503.525 251.789 503.6 251.97L506.6 261.03C506.762 261.522 506.896 262.023 507 262.53C507.087 261.977 507.187 261.477 507.3 261.03L509.88 251.97C509.931 251.787 510.044 251.628 510.2 251.52C510.378 251.395 510.593 251.332 510.81 251.34H513.02L508.32 266.48H505.78L502.41 256.15C502.354 256.01 502.308 255.866 502.27 255.72C502.27 255.57 502.19 255.41 502.14 255.24C502.112 255.403 502.072 255.563 502.02 255.72C502.02 255.88 501.93 256.02 501.89 256.15L498.55 266.5H496L491.3 251.34Z" fill="white"/>
<path d="M551.26 262.93C551.337 262.93 551.414 262.945 551.484 262.976C551.555 263.007 551.618 263.053 551.67 263.11L552.78 264.31C552.177 265.065 551.402 265.665 550.52 266.06C549.495 266.488 548.391 266.696 547.28 266.67C546.251 266.683 545.23 266.486 544.28 266.09C543.409 265.725 542.625 265.179 541.98 264.49C541.332 263.781 540.835 262.947 540.52 262.04C540.172 261.04 539.999 259.988 540.01 258.93C540.001 257.862 540.187 256.801 540.56 255.8C540.898 254.891 541.419 254.061 542.09 253.36C542.757 252.668 543.56 252.123 544.45 251.76C545.403 251.376 546.422 251.183 547.45 251.19C548.456 251.172 549.456 251.356 550.39 251.73C551.199 252.068 551.938 252.553 552.57 253.16L551.63 254.47C551.568 254.55 551.498 254.624 551.42 254.69C551.312 254.755 551.186 254.786 551.06 254.78C550.944 254.779 550.831 254.748 550.73 254.69L550.36 254.47L549.9 254.18C549.71 254.067 549.509 253.973 549.3 253.9C549.037 253.8 548.766 253.723 548.49 253.67C548.143 253.615 547.792 253.588 547.44 253.59C546.802 253.582 546.169 253.704 545.58 253.95C545.029 254.173 544.534 254.515 544.13 254.95C543.706 255.437 543.387 256.005 543.19 256.62C542.956 257.35 542.841 258.113 542.85 258.88C542.835 259.653 542.961 260.422 543.22 261.15C543.442 261.769 543.782 262.34 544.22 262.83C544.632 263.261 545.129 263.602 545.68 263.83C546.249 264.072 546.862 264.194 547.48 264.19C547.814 264.191 548.148 264.171 548.48 264.13C548.773 264.093 549.061 264.026 549.34 263.93C549.601 263.838 549.852 263.721 550.09 263.58C550.334 263.422 550.565 263.245 550.78 263.05C550.843 262.987 550.918 262.936 551 262.9C551.088 262.888 551.177 262.898 551.26 262.93V262.93Z" fill="white"/>
<path d="M579.31 258.93C579.322 259.982 579.136 261.027 578.76 262.01C578.418 262.933 577.884 263.774 577.195 264.477C576.506 265.18 575.676 265.729 574.76 266.09C572.738 266.863 570.502 266.863 568.48 266.09C567.571 265.722 566.747 265.17 566.06 264.47C565.376 263.764 564.842 262.927 564.49 262.01C564.114 261.027 563.928 259.982 563.94 258.93C563.929 257.875 564.115 256.827 564.49 255.84C564.845 254.927 565.379 254.094 566.06 253.39C566.747 252.69 567.571 252.138 568.48 251.77C569.475 251.373 570.539 251.176 571.61 251.19C572.341 251.187 573.07 251.274 573.78 251.45C574.434 251.619 575.063 251.874 575.65 252.21C576.209 252.531 576.72 252.929 577.17 253.39C577.618 253.859 578.004 254.383 578.32 254.95C578.637 255.538 578.879 256.162 579.04 256.81C579.213 257.504 579.303 258.215 579.31 258.93ZM576.43 258.93C576.441 258.17 576.329 257.414 576.1 256.69C575.882 256.069 575.542 255.498 575.1 255.01C574.686 254.549 574.173 254.186 573.6 253.95C572.31 253.468 570.89 253.468 569.6 253.95C569.025 254.189 568.51 254.551 568.09 255.01C567.648 255.498 567.308 256.069 567.09 256.69C566.65 258.147 566.65 259.703 567.09 261.16C567.308 261.781 567.648 262.352 568.09 262.84C568.513 263.281 569.029 263.623 569.6 263.84C570.887 264.336 572.313 264.336 573.6 263.84C574.17 263.625 574.683 263.283 575.1 262.84C575.542 262.352 575.882 261.781 576.1 261.16C576.323 260.438 576.428 259.685 576.41 258.93H576.43Z" fill="white"/>
<path d="M594.05 251.34C594.13 251.347 594.207 251.367 594.28 251.4C594.353 251.437 594.42 251.484 594.48 251.54L594.69 251.78L602.63 261.91L602.57 261.19C602.57 260.95 602.57 260.73 602.57 260.53V251.34H605.06V266.48H603.61C603.418 266.484 603.226 266.447 603.05 266.37C602.88 266.282 602.732 266.155 602.62 266L594.71 255.91C594.71 256.14 594.71 256.36 594.76 256.58C594.81 256.8 594.76 257 594.76 257.18V266.48H592.28V251.34H594.06H594.05Z" fill="white"/>
<path d="M626.95 254.11C626.881 254.233 626.789 254.341 626.68 254.43C626.578 254.501 626.455 254.537 626.33 254.53C626.159 254.519 625.994 254.464 625.85 254.37L625.24 254C624.973 253.859 624.695 253.739 624.41 253.64C624.044 253.53 623.663 253.476 623.28 253.48C622.942 253.479 622.605 253.526 622.28 253.62C622.014 253.706 621.766 253.842 621.55 254.02C621.351 254.178 621.196 254.385 621.1 254.62C620.998 254.864 620.946 255.126 620.95 255.39C620.94 255.713 621.047 256.029 621.25 256.28C621.471 256.532 621.74 256.74 622.04 256.89C622.403 257.064 622.777 257.214 623.16 257.34L624.45 257.76C624.89 257.908 625.32 258.082 625.74 258.28C626.151 258.473 626.529 258.73 626.86 259.04C627.197 259.352 627.466 259.73 627.65 260.15C627.863 260.659 627.965 261.208 627.95 261.76C627.953 262.416 627.834 263.067 627.6 263.68C627.378 264.263 627.037 264.795 626.6 265.24C626.124 265.695 625.564 266.052 624.95 266.29C624.236 266.553 623.48 266.682 622.72 266.67C621.769 266.671 620.828 266.484 619.95 266.12C619.526 265.952 619.121 265.741 618.74 265.49C618.377 265.259 618.042 264.987 617.74 264.68L618.56 263.33C618.637 263.23 618.732 263.145 618.84 263.08C618.944 263.013 619.066 262.979 619.19 262.98C619.398 262.992 619.598 263.069 619.76 263.2C619.96 263.34 620.2 263.5 620.48 263.67C620.795 263.865 621.131 264.026 621.48 264.15C621.914 264.3 622.371 264.371 622.83 264.36C623.499 264.402 624.16 264.199 624.69 263.79C624.918 263.585 625.097 263.331 625.211 263.047C625.325 262.763 625.373 262.456 625.35 262.15C625.371 261.792 625.265 261.437 625.05 261.15C624.835 260.886 624.565 260.671 624.26 260.52C623.904 260.332 623.528 260.185 623.14 260.08L621.86 259.69C621.426 259.553 621.001 259.386 620.59 259.19C620.174 259.001 619.792 258.744 619.46 258.43C619.123 258.091 618.855 257.691 618.67 257.25C618.458 256.692 618.359 256.097 618.38 255.5C618.381 254.947 618.493 254.399 618.71 253.89C618.924 253.364 619.248 252.891 619.66 252.5C620.107 252.069 620.633 251.729 621.21 251.5C621.888 251.249 622.607 251.127 623.33 251.14C624.172 251.13 625.009 251.273 625.8 251.56C626.516 251.814 627.173 252.213 627.73 252.73L626.95 254.11Z" fill="white"/>
<path d="M646.94 264.23C647.441 264.241 647.939 264.145 648.4 263.95C648.814 263.783 649.183 263.523 649.48 263.19C649.785 262.844 650.016 262.439 650.16 262C650.326 261.49 650.407 260.956 650.4 260.42V251.34H653.21V260.4C653.221 261.253 653.076 262.1 652.78 262.9C652.507 263.644 652.079 264.321 651.523 264.887C650.968 265.452 650.299 265.893 649.56 266.18C647.866 266.806 646.004 266.806 644.31 266.18C643.571 265.893 642.902 265.452 642.347 264.887C641.791 264.321 641.363 263.644 641.09 262.9C640.794 262.1 640.649 261.253 640.66 260.4V251.34H643.47V260.39C643.463 260.926 643.544 261.46 643.71 261.97C643.856 262.411 644.087 262.818 644.39 263.17C644.692 263.502 645.064 263.761 645.48 263.93C645.94 264.131 646.438 264.233 646.94 264.23V264.23Z" fill="white"/>
<path d="M674.8 260.91C674.91 261.15 675.01 261.4 675.1 261.64C675.2 261.38 675.3 261.13 675.41 260.89C675.508 260.654 675.618 260.424 675.74 260.2L680.21 251.81C680.26 251.717 680.321 251.63 680.39 251.55C680.451 251.494 680.523 251.45 680.6 251.42C680.676 251.387 680.757 251.37 680.84 251.37H683.29V266.51H680.81V256.73C680.81 256.55 680.81 256.35 680.81 256.13C680.81 255.91 680.81 255.69 680.81 255.47L676.24 264.06C676.152 264.25 676.011 264.41 675.833 264.52C675.655 264.63 675.449 264.686 675.24 264.68H674.84C674.631 264.686 674.425 264.63 674.247 264.52C674.069 264.41 673.928 264.25 673.84 264.06L669.21 255.44C669.21 255.67 669.21 255.89 669.21 256.11C669.21 256.33 669.21 256.54 669.21 256.73V266.51H666.73V251.34H669.18C669.266 251.34 669.351 251.357 669.43 251.39C669.504 251.42 669.572 251.464 669.63 251.52C669.696 251.6 669.753 251.688 669.8 251.78L674.33 260.19C674.501 260.421 674.658 260.661 674.8 260.91V260.91Z" fill="white"/>
<path d="M706.69 251.34V253.58H699.97V257.78H705.27V259.94H699.97V264.23H706.69V266.48H697.14V251.34H706.69Z" fill="white"/>
<path d="M722.47 260.58V266.5H719.66V251.34H724.28C725.171 251.32 726.06 251.428 726.92 251.66C727.578 251.831 728.193 252.133 728.73 252.55C729.171 252.922 729.514 253.395 729.73 253.93C729.955 254.489 730.067 255.087 730.06 255.69C730.059 256.182 729.985 256.67 729.84 257.14C729.688 257.581 729.469 257.996 729.19 258.37C728.894 258.756 728.54 259.093 728.14 259.37C727.7 259.658 727.222 259.884 726.72 260.04C727.091 260.253 727.406 260.551 727.64 260.91L731.43 266.5H728.89C728.687 266.504 728.487 266.454 728.311 266.353C728.135 266.253 727.989 266.107 727.89 265.93L724.71 261.09C724.614 260.927 724.476 260.792 724.31 260.7C724.113 260.608 723.897 260.567 723.68 260.58H722.47ZM722.47 258.58H724.23C724.701 258.588 725.17 258.521 725.62 258.38C725.99 258.273 726.332 258.085 726.62 257.83C726.869 257.599 727.064 257.316 727.19 257C727.317 256.661 727.381 256.302 727.38 255.94C727.399 255.606 727.34 255.273 727.208 254.966C727.076 254.658 726.875 254.386 726.62 254.17C725.939 253.708 725.121 253.489 724.3 253.55H722.49L722.47 258.58Z" fill="white"/>
<path d="M0 192.03V0H192.03L0 192.03Z" fill="#FFD970"/>
<g style="mix-blend-mode:multiply">
<path d="M67.57 0H0V192H64.53C65.53 192 66.53 191.95 67.53 191.92V192C123.06 192 168.07 149 168.07 96C168.07 43 123.1 0 67.57 0Z" fill="#FFD970"/>
</g>
<path d="M0 192.03V0L95.71 96.02L0 192.03Z" fill="#FF595C"/>
<path d="M192.03 192.03H0L192.03 0V192.03Z" fill="#475FEA"/>
<g style="mix-blend-mode:multiply" opacity="0.85">
<path d="M0 192.03H64.53C65.53 192.03 66.53 191.98 67.53 191.95V192.03C123.06 192.03 168.07 149.03 168.07 96.03C168.079 76.4801 161.897 57.4295 150.41 41.61L0 192.03Z" fill="#475FEA"/>
</g>
<path d="M279.18 86.34C276.456 86.3917 273.745 85.9478 271.18 85.03C268.997 84.2433 267.02 82.9742 265.396 81.3172C263.772 79.6602 262.543 77.6581 261.8 75.46C260.959 73.002 260.546 70.4178 260.58 67.82V35.84H255.2C254.714 35.8591 254.229 35.7742 253.778 35.5909C253.327 35.4075 252.92 35.13 252.585 34.7769C252.25 34.4239 251.994 34.0033 251.835 33.5434C251.675 33.0834 251.616 32.5947 251.66 32.11V24.72L261.74 22.72L265.47 3.32001C265.963 1.36001 267.347 0.380005 269.62 0.380005H279.52V22.84H295.23V35.84H279.54V66.49C279.494 67.7871 279.869 69.0643 280.61 70.13C280.97 70.6015 281.44 70.9782 281.978 71.2274C282.516 71.4766 283.108 71.5907 283.7 71.56C284.277 71.5669 284.853 71.4929 285.41 71.34C285.831 71.2153 286.24 71.0513 286.63 70.85L287.63 70.36C287.967 70.2137 288.332 70.142 288.7 70.15C289.192 70.1251 289.678 70.266 290.08 70.55C290.502 70.9029 290.861 71.3257 291.14 71.8L296.89 80.8C294.406 82.6538 291.613 84.0522 288.64 84.93C285.572 85.8559 282.385 86.3309 279.18 86.34V86.34Z" fill="white"/>
<path d="M303.41 85.34V0.399994H322.41V27.5C324.648 25.5789 327.146 23.9832 329.83 22.76C332.857 21.4903 336.119 20.8768 339.4 20.96C342.56 20.9007 345.696 21.5143 348.6 22.76C351.191 23.9089 353.496 25.6163 355.35 27.76C357.238 29.9942 358.651 32.5906 359.5 35.39C360.464 38.5081 360.939 41.7565 360.91 45.02V85.34H341.94V45.04C342.1 42.4486 341.339 39.884 339.79 37.8C339.012 36.9118 338.04 36.2151 336.949 35.7641C335.858 35.3131 334.678 35.1201 333.5 35.2C331.465 35.1905 329.456 35.6526 327.63 36.55C325.721 37.4992 323.953 38.7109 322.38 40.15V85.34H303.41Z" fill="white"/>
<path d="M401.03 20.96C404.959 20.9256 408.862 21.6033 412.55 22.96C415.923 24.1854 418.992 26.1227 421.55 28.64C424.12 31.2287 426.117 34.3292 427.41 37.74C428.869 41.6567 429.584 45.811 429.52 49.99C429.537 51.153 429.474 52.3158 429.33 53.47C429.259 54.2224 429.031 54.9514 428.66 55.61C428.366 56.1187 427.902 56.508 427.35 56.71C426.671 56.9385 425.956 57.0435 425.24 57.02H388.69C389.303 62.32 390.91 66.16 393.51 68.54C396.289 70.9831 399.903 72.2616 403.6 72.11C405.523 72.1507 407.441 71.884 409.28 71.32C410.741 70.8426 412.162 70.2507 413.53 69.55L416.95 67.77C417.963 67.2532 419.083 66.9826 420.22 66.98C420.883 66.9409 421.546 67.0719 422.144 67.3607C422.743 67.6494 423.258 68.0864 423.64 68.63L429.14 75.41C427.322 77.5427 425.191 79.3871 422.82 80.88C420.625 82.2529 418.276 83.3606 415.82 84.18C413.497 84.9649 411.102 85.5176 408.67 85.83C406.412 86.1295 404.138 86.2832 401.86 86.29C397.597 86.3229 393.363 85.5878 389.36 84.12C385.535 82.7235 382.054 80.5242 379.15 77.67C376.128 74.649 373.774 71.0277 372.24 67.04C370.466 62.3152 369.607 57.2959 369.71 52.25C369.691 48.1508 370.427 44.0831 371.88 40.25C373.273 36.5099 375.417 33.0949 378.181 30.2158C380.945 27.3366 384.27 25.0544 387.95 23.51C392.087 21.7654 396.541 20.8971 401.03 20.96ZM401.41 34.04C397.79 34.04 394.96 35.07 392.92 37.13C390.88 39.19 389.547 42.1533 388.92 46.02H412.57C412.57 44.5343 412.375 43.055 411.99 41.62C411.621 40.2314 410.975 38.9318 410.09 37.8C409.168 36.6368 407.986 35.7053 406.64 35.08C404.998 34.3402 403.21 33.9845 401.41 34.04V34.04Z" fill="white"/>
<path d="M300.84 192.12C299.817 192.206 298.796 191.936 297.949 191.357C297.102 190.778 296.481 189.924 296.19 188.94L294.73 184.11C293.491 185.432 292.154 186.659 290.73 187.78C289.341 188.887 287.835 189.839 286.24 190.62C284.589 191.434 282.847 192.049 281.05 192.45C279.081 192.894 277.068 193.112 275.05 193.1C271.86 193.122 268.713 192.367 265.88 190.9C263 189.367 260.512 187.191 258.61 184.54C256.423 181.449 254.798 177.996 253.81 174.34C252.591 169.871 252.005 165.252 252.07 160.62C252.041 156.152 252.716 151.708 254.07 147.45C255.247 143.632 257.122 140.065 259.6 136.93C261.925 134.023 264.857 131.658 268.19 130C271.624 128.305 275.41 127.445 279.24 127.49C282.069 127.411 284.884 127.901 287.52 128.93C289.748 129.866 291.822 131.133 293.67 132.69V107.21H312.61V192.12H300.84ZM281.65 178.55C282.915 178.565 284.177 178.43 285.41 178.15C286.484 177.906 287.522 177.526 288.5 177.02C289.456 176.518 290.349 175.904 291.16 175.19C292.05 174.4 292.876 173.54 293.63 172.62V145.74C292.346 144.283 290.745 143.14 288.95 142.4C287.283 141.769 285.513 141.45 283.73 141.46C282.065 141.426 280.414 141.768 278.9 142.46C277.356 143.215 276.039 144.364 275.08 145.79C273.877 147.6 273.019 149.618 272.55 151.74C271.888 154.649 271.579 157.627 271.63 160.61C271.582 163.438 271.827 166.263 272.36 169.04C272.723 170.987 273.416 172.857 274.41 174.57C275.158 175.846 276.249 176.885 277.56 177.57C278.825 178.219 280.228 178.556 281.65 178.55Z" fill="white"/>
<path d="M346.74 111.83C346.747 113.294 346.433 114.741 345.82 116.07C345.217 117.382 344.364 118.563 343.31 119.55C342.232 120.565 340.978 121.374 339.61 121.94C338.188 122.532 336.661 122.832 335.12 122.82C333.631 122.834 332.156 122.534 330.79 121.94C329.464 121.363 328.251 120.554 327.21 119.55C326.175 118.561 325.342 117.378 324.76 116.07C324.169 114.735 323.869 113.29 323.88 111.83C323.866 110.338 324.166 108.859 324.76 107.49C325.928 104.819 328.075 102.697 330.76 101.56C332.13 100.982 333.603 100.689 335.09 100.7C336.628 100.691 338.154 100.984 339.58 101.56C342.34 102.658 344.566 104.784 345.79 107.49C346.417 108.851 346.741 110.332 346.74 111.83V111.83ZM344.74 128.75V192.12H325.83V128.75H344.74Z" fill="white"/>
<path d="M393.18 192.12H375.95L351.41 128.75H367.18C368.38 128.709 369.563 129.037 370.57 129.69C371.421 130.254 372.067 131.078 372.41 132.04L381.22 160.46C381.987 162.793 382.653 165.057 383.22 167.25C383.787 169.443 384.307 171.643 384.78 173.85C385.233 171.65 385.763 169.45 386.37 167.25C386.977 165.05 387.69 162.787 388.51 160.46L397.67 132.04C398.02 131.082 398.664 130.26 399.51 129.69C400.441 129.05 401.551 128.721 402.68 128.75H417.68L393.18 192.12Z" fill="white"/>
<path d="M449.71 127.77C453.636 127.725 457.538 128.385 461.23 129.72C464.604 130.948 467.673 132.889 470.23 135.41C472.812 138.002 474.813 141.115 476.1 144.54C477.559 148.46 478.274 152.618 478.21 156.8C478.227 157.963 478.163 159.126 478.02 160.28C477.949 161.032 477.721 161.761 477.35 162.42C477.052 162.926 476.59 163.314 476.04 163.52C475.359 163.74 474.645 163.842 473.93 163.82H437.41C438.023 169.12 439.63 172.96 442.23 175.34C445.006 177.79 448.621 179.073 452.32 178.92C454.244 178.958 456.161 178.688 458 178.12C459.451 177.646 460.859 177.05 462.21 176.34L465.63 174.57C466.641 174.049 467.762 173.778 468.9 173.78C469.562 173.742 470.223 173.872 470.822 174.159C471.42 174.446 471.935 174.88 472.32 175.42L477.82 182.21C475.997 184.337 473.867 186.181 471.5 187.68C469.304 189.051 466.955 190.158 464.5 190.98C462.194 191.755 459.82 192.311 457.41 192.64C455.152 192.935 452.877 193.088 450.6 193.1C446.337 193.128 442.104 192.393 438.1 190.93C434.279 189.526 430.799 187.327 427.89 184.48C424.871 181.457 422.517 177.836 420.98 173.85C419.192 169.128 418.32 164.108 418.41 159.06C418.391 154.961 419.126 150.893 420.58 147.06C421.974 143.32 424.119 139.904 426.883 137.023C429.647 134.143 432.97 131.858 436.65 130.31C440.782 128.572 445.228 127.707 449.71 127.77V127.77ZM450.07 140.85C446.45 140.85 443.62 141.877 441.58 143.93C439.54 145.983 438.207 148.947 437.58 152.82H461.23C461.229 151.334 461.034 149.855 460.65 148.42C460.279 147.032 459.633 145.733 458.75 144.6C457.825 143.44 456.644 142.509 455.3 141.88C453.658 141.144 451.869 140.792 450.07 140.85V140.85Z" fill="white"/>
<path d="M487.66 192.12V128.75H498.9C499.693 128.734 500.486 128.815 501.26 128.99C501.838 129.128 502.38 129.387 502.85 129.75C503.298 130.115 503.642 130.591 503.85 131.13C504.108 131.804 504.302 132.5 504.43 133.21L505.35 138.59C507.08 135.476 509.396 132.725 512.17 130.49C514.659 128.515 517.752 127.455 520.93 127.49C523.42 127.37 525.88 128.073 527.93 129.49L526.71 143.42C526.609 144.134 526.254 144.787 525.71 145.26C525.129 145.61 524.457 145.777 523.78 145.74C523.46 145.74 523.03 145.74 522.5 145.69L520.85 145.53L519.11 145.35C518.544 145.317 517.976 145.313 517.41 145.34C514.997 145.215 512.627 146.012 510.78 147.57C508.963 149.296 507.534 151.389 506.59 153.71V192.15L487.66 192.12Z" fill="white"/>
<path d="M574.56 142.62C574.173 143.282 573.64 143.847 573 144.27C572.355 144.624 571.625 144.794 570.89 144.76C569.963 144.75 569.048 144.553 568.2 144.18L565.3 142.92C564.151 142.439 562.975 142.021 561.78 141.67C560.328 141.267 558.827 141.071 557.32 141.09C555.378 140.967 553.446 141.449 551.79 142.47C551.173 142.892 550.673 143.464 550.337 144.132C550.002 144.8 549.841 145.543 549.87 146.29C549.855 146.84 549.958 147.386 550.174 147.892C550.39 148.398 550.713 148.851 551.12 149.22C552.108 150.071 553.234 150.747 554.45 151.22C555.987 151.871 557.559 152.436 559.16 152.91C560.913 153.437 562.703 154.027 564.53 154.68C566.37 155.329 568.167 156.094 569.91 156.97C571.625 157.822 573.211 158.913 574.62 160.21C576.028 161.531 577.16 163.118 577.95 164.88C578.829 166.967 579.255 169.216 579.2 171.48C579.231 174.46 578.649 177.415 577.49 180.16C576.348 182.81 574.602 185.156 572.39 187.01C569.918 189.034 567.07 190.55 564.01 191.47C560.295 192.587 556.429 193.123 552.55 193.06C550.379 193.055 548.213 192.851 546.08 192.45C543.954 192.049 541.858 191.497 539.81 190.8C537.877 190.139 536.007 189.309 534.22 188.32C532.648 187.453 531.173 186.42 529.82 185.24L534.22 178.24C534.677 177.454 535.319 176.791 536.09 176.31C536.973 175.813 537.977 175.571 538.99 175.61C540.037 175.584 541.072 175.836 541.99 176.34L544.83 177.93C545.979 178.554 547.176 179.086 548.41 179.52C550.079 180.057 551.827 180.307 553.58 180.26C554.835 180.283 556.088 180.128 557.3 179.8C558.193 179.556 559.024 179.127 559.74 178.54C560.298 178.079 560.747 177.5 561.055 176.845C561.363 176.189 561.522 175.474 561.52 174.75C561.537 174.171 561.432 173.594 561.212 173.058C560.991 172.523 560.66 172.039 560.24 171.64C559.255 170.742 558.117 170.027 556.88 169.53C555.334 168.886 553.752 168.335 552.14 167.88C550.37 167.37 548.56 166.79 546.73 166.14C544.875 165.479 543.067 164.69 541.32 163.78C539.564 162.881 537.964 161.706 536.58 160.3C535.143 158.808 534.003 157.057 533.22 155.14C531.42 150.259 531.52 144.88 533.5 140.07C534.561 137.619 536.161 135.438 538.18 133.69C540.471 131.729 543.129 130.244 546 129.32C549.552 128.176 553.269 127.628 557 127.7C559.224 127.693 561.444 127.897 563.63 128.31C565.677 128.698 567.686 129.27 569.63 130.02C571.423 130.712 573.141 131.584 574.76 132.62C576.236 133.562 577.607 134.658 578.85 135.89L574.56 142.62Z" fill="white"/>
<path d="M610.06 111.83C610.07 113.293 609.76 114.74 609.15 116.07C608.547 117.382 607.694 118.563 606.64 119.55C605.562 120.565 604.308 121.374 602.94 121.94C601.518 122.532 599.991 122.832 598.45 122.82C596.958 122.834 595.479 122.534 594.11 121.94C592.787 121.363 591.578 120.553 590.54 119.55C589.501 118.564 588.668 117.381 588.09 116.07C587.499 114.735 587.199 113.29 587.21 111.83C587.196 110.338 587.496 108.859 588.09 107.49C589.261 104.821 591.407 102.699 594.09 101.56C595.463 100.982 596.94 100.69 598.43 100.7C599.968 100.691 601.494 100.984 602.92 101.56C605.68 102.658 607.906 104.784 609.13 107.49C609.75 108.852 610.067 110.333 610.06 111.83ZM608.11 128.75V192.12H589.11V128.75H608.11Z" fill="white"/>
<path d="M697.63 208.56C697.184 209.648 696.468 210.605 695.55 211.34C694.366 212.024 693.003 212.334 691.64 212.23H677.46L689.68 186.56L664.41 128.75H681.16C682.372 128.68 683.57 129.033 684.55 129.75C685.311 130.369 685.908 131.166 686.29 132.07L696.65 159.34C697.609 161.811 698.404 164.344 699.03 166.92C699.44 165.62 699.88 164.32 700.35 163.04C700.82 161.76 701.3 160.48 701.78 159.22L711.19 132.02C711.599 131.05 712.298 130.229 713.19 129.67C714.091 129.053 715.158 128.726 716.25 128.73H731.52L697.63 208.56Z" fill="white"/>
<path d="M644.02 193.13C641.296 193.183 638.585 192.739 636.02 191.82C633.835 191.037 631.856 189.769 630.231 188.112C628.607 186.454 627.379 184.45 626.64 182.25C625.79 179.794 625.374 177.209 625.41 174.61V142.68H620.04C619.553 142.701 619.067 142.617 618.615 142.434C618.162 142.251 617.755 141.974 617.418 141.621C617.082 141.268 616.825 140.846 616.665 140.386C616.505 139.925 616.445 139.436 616.49 138.95V131.56L626.58 129.56L630.3 110.16C630.793 108.2 632.18 107.22 634.46 107.22H644.41V129.68H660.11V142.68H644.41V173.34C644.355 174.638 644.732 175.918 645.48 176.98C645.837 177.452 646.305 177.829 646.842 178.079C647.379 178.328 647.969 178.442 648.56 178.41C649.147 178.424 649.733 178.354 650.3 178.2C650.724 178.075 651.136 177.911 651.53 177.71C651.87 177.53 652.2 177.36 652.53 177.22C652.864 177.074 653.226 177.002 653.59 177.01C654.082 176.985 654.568 177.126 654.97 177.41C655.396 177.762 655.758 178.185 656.04 178.66L661.78 187.66C659.298 189.517 656.504 190.916 653.53 191.79C650.442 192.698 647.238 193.149 644.02 193.13V193.13Z" fill="white"/>
</g>
<defs>
<clipPath id="clip0">
<rect width="731.48" height="266.67" fill="white"/>
</clipPath>
</defs>
</svg>
