<svg width="277" height="64" viewBox="0 0 277 64" fill="none" xmlns="http://www.w3.org/2000/svg">
<g clip-path="url(#clip0)">
<path d="M11.06 37.4056C9.83109 37.4056 8.78426 37.2231 7.82846 36.9038C6.91817 36.5388 6.14443 36.0371 5.50723 35.3984C4.87003 34.7598 4.41489 33.9387 4.09629 33.0264C3.77769 32.114 3.59563 31.0649 3.59563 29.9244V16.7413H1.41094C1.00131 16.7413 0.682714 16.6044 0.409629 16.3763C0.136543 16.1026 0 15.7377 0 15.2359V12.2708L4.05077 11.4954L5.55274 5.2459C5.7348 4.47042 6.32649 4.05987 7.23677 4.05987H11.1965V11.541H17.523V16.7413H11.1965V29.4227C11.1965 30.0157 11.3331 30.5175 11.6061 30.8824C11.8792 31.2473 12.3344 31.4298 12.8805 31.4298C13.1536 31.4298 13.3812 31.3842 13.5633 31.3386C13.7453 31.2929 13.9274 31.2017 14.0639 31.1561C14.2005 31.0649 14.337 31.0192 14.4735 30.9736C14.6101 30.928 14.7466 30.8824 14.9287 30.8824C15.1563 30.8824 15.3383 30.928 15.4749 31.0649C15.6114 31.1561 15.7479 31.3386 15.93 31.5666L18.2512 35.1703C17.2499 35.9002 16.1576 36.4476 14.9287 36.8582C13.6543 37.2231 12.3799 37.4056 11.06 37.4056ZM20.8 37.0406V0.13685H28.4009V13.7306C29.3112 12.9551 30.3125 12.3165 31.3594 11.8147C32.4517 11.3129 33.7261 11.0848 35.2281 11.0848C36.639 11.0848 37.8679 11.3129 38.9147 11.8147C40.0071 12.2708 40.9174 12.9551 41.6456 13.8218C42.3738 14.6885 42.92 15.6921 43.3296 16.8781C43.6937 18.0641 43.8758 19.3414 43.8758 20.7555V36.995H36.2749V20.8011C36.2749 19.5695 36.0018 18.5659 35.4101 17.8817C34.8184 17.1974 33.9992 16.8325 32.8613 16.8325C32.0421 16.8325 31.2228 17.015 30.4946 17.3799C29.7663 17.7448 29.0381 18.2466 28.4009 18.8396V37.0406H20.8ZM60.0789 11.0848C61.7629 11.0848 63.3104 11.3585 64.7213 11.8603C66.1323 12.4077 67.3157 13.1376 68.317 14.1411C69.3183 15.1447 70.1375 16.3763 70.6837 17.8361C71.2754 19.2958 71.5485 20.938 71.5485 22.7627C71.5485 23.3557 71.503 23.8118 71.4574 24.1768C71.4119 24.5417 71.3209 24.8154 71.1844 25.0435C71.0478 25.2716 70.8658 25.4084 70.6382 25.4996C70.4106 25.5909 70.1375 25.6365 69.8189 25.6365H55.1178C55.3454 27.7805 56.0281 29.3314 57.0749 30.2894C58.1218 31.2473 59.4872 31.7035 61.1257 31.7035C61.9905 31.7035 62.7642 31.6123 63.4014 31.3842C64.0386 31.1561 64.5848 30.928 65.0854 30.6543C65.5861 30.3806 66.0412 30.1525 66.4509 29.9244C66.8605 29.6964 67.3156 29.6051 67.7708 29.6051C68.3625 29.6051 68.8176 29.8332 69.1362 30.2894L71.3664 33.0264C70.5927 33.9387 69.7279 34.6686 68.8176 35.2616C67.9073 35.809 66.997 36.2651 65.9957 36.5845C65.0399 36.9038 64.0841 37.1319 63.1283 37.2231C62.1725 37.3599 61.2622 37.4056 60.3975 37.4056C58.6224 37.4056 56.9384 37.1319 55.3454 36.5388C53.7979 35.9458 52.4325 35.0791 51.2491 33.9387C50.0657 32.7983 49.1554 31.3386 48.4727 29.6507C47.79 27.9629 47.4714 25.9558 47.4714 23.675C47.4714 21.9872 47.7445 20.345 48.3362 18.8396C48.9279 17.3343 49.7471 15.9658 50.8395 14.8254C51.9318 13.685 53.2517 12.7726 54.7992 12.0884C56.3922 11.4041 58.1218 11.0848 60.0789 11.0848ZM60.2154 16.3763C58.759 16.3763 57.6211 16.7869 56.8018 17.6536C55.9826 18.4747 55.4364 19.6607 55.1633 21.2117H64.6758C64.6758 20.6187 64.5848 20.0257 64.4482 19.4326C64.3117 18.8396 64.0386 18.3378 63.6745 17.9273C63.3104 17.4711 62.8552 17.1062 62.3091 16.8325C61.7174 16.5132 61.0347 16.3763 60.2154 16.3763ZM105.093 37.0406C104.137 37.0406 103.5 36.6301 103.226 35.7634L102.635 33.8018C102.134 34.3493 101.588 34.851 101.042 35.2616C100.496 35.6721 99.8584 36.0827 99.2212 36.402C98.584 36.7213 97.9013 36.9494 97.1275 37.1319C96.3993 37.3143 95.58 37.4056 94.7153 37.4056C93.3953 37.4056 92.1665 37.1319 91.0286 36.5388C89.8907 35.9458 88.9349 35.0791 88.1157 33.9843C87.2964 32.8895 86.6592 31.521 86.1586 29.8788C85.7034 28.2366 85.4759 26.412 85.4759 24.3592C85.4759 22.4433 85.7489 20.7099 86.2496 19.0677C86.7958 17.4255 87.524 16.0114 88.4798 14.8254C89.4356 13.6393 90.619 12.6814 91.9389 11.9971C93.3043 11.3129 94.7608 10.9936 96.3993 10.9936C97.7192 10.9936 98.8115 11.1761 99.7218 11.5866C100.632 11.9515 101.451 12.4533 102.225 13.0919V0.13685H109.826V36.995H105.093V37.0406ZM97.3551 31.5666C97.9013 31.5666 98.4019 31.521 98.8571 31.4298C99.3122 31.2929 99.7218 31.1561 100.131 30.9736C100.541 30.7912 100.86 30.5175 101.178 30.2438C101.542 29.9701 101.861 29.6051 102.18 29.1946V18.3378C101.588 17.6992 100.951 17.243 100.268 17.015C99.6308 16.7413 98.9026 16.6044 98.1743 16.6044C97.4916 16.6044 96.8089 16.7413 96.2172 17.015C95.6255 17.2887 95.1249 17.7448 94.6697 18.3835C94.2601 18.9765 93.896 19.7976 93.6684 20.7555C93.4409 21.7591 93.3043 22.9451 93.3043 24.3136C93.3043 25.6821 93.3953 26.7769 93.5774 27.7349C93.7595 28.6472 94.0325 29.4227 94.3967 29.9701C94.7608 30.5175 95.1704 30.928 95.6711 31.1561C96.2172 31.4298 96.7634 31.5666 97.3551 31.5666ZM122.752 11.4954V37.0406H115.151V11.4954H122.752ZM123.526 4.47042C123.526 5.06344 123.389 5.65645 123.162 6.20385C122.934 6.75125 122.57 7.20741 122.16 7.61796C121.751 8.02851 121.25 8.34783 120.658 8.57591C120.112 8.80399 119.521 8.94084 118.883 8.94084C118.246 8.94084 117.7 8.80399 117.154 8.57591C116.608 8.34783 116.107 8.02851 115.697 7.61796C115.288 7.20741 114.969 6.75125 114.696 6.20385C114.468 5.65645 114.332 5.10905 114.332 4.47042C114.332 3.83179 114.468 3.28439 114.696 2.73699C114.924 2.18959 115.288 1.73343 115.697 1.32288C116.107 0.912331 116.608 0.593015 117.154 0.364932C117.7 0.13685 118.292 0 118.883 0C119.521 0 120.112 0.13685 120.658 0.364932C121.25 0.593015 121.751 0.912331 122.16 1.32288C122.57 1.73343 122.934 2.18959 123.162 2.73699C123.389 3.28439 123.526 3.87741 123.526 4.47042ZM142.187 37.0406H135.268L125.392 11.4954H131.718C132.265 11.4954 132.72 11.6322 133.084 11.9059C133.448 12.134 133.721 12.4533 133.858 12.8639L137.408 24.3136C137.726 25.2716 137.999 26.1839 138.227 27.0506C138.454 27.9173 138.682 28.8296 138.864 29.6964C139.046 28.8296 139.274 27.9173 139.501 27.0506C139.729 26.1839 140.047 25.2716 140.366 24.3136L144.053 12.8639C144.189 12.4989 144.417 12.1796 144.781 11.9059C145.145 11.6322 145.555 11.4954 146.055 11.4954H152.109L142.187 37.0406ZM164.898 11.0848C166.582 11.0848 168.13 11.3585 169.541 11.8603C170.952 12.4077 172.135 13.1376 173.136 14.1411C174.138 15.1447 174.957 16.3763 175.503 17.8361C176.095 19.2958 176.368 20.938 176.368 22.7627C176.368 23.3557 176.322 23.8118 176.277 24.1768C176.231 24.5417 176.14 24.8154 176.004 25.0435C175.867 25.2716 175.685 25.4084 175.458 25.4996C175.23 25.5909 174.957 25.6365 174.638 25.6365H159.937C160.165 27.7805 160.848 29.3314 161.894 30.2894C162.941 31.2473 164.307 31.7035 165.945 31.7035C166.81 31.7035 167.584 31.6123 168.221 31.3842C168.858 31.1561 169.404 30.928 169.905 30.6543C170.406 30.3806 170.861 30.1525 171.27 29.9244C171.68 29.6964 172.135 29.6051 172.59 29.6051C173.182 29.6051 173.637 29.8332 173.956 30.2894L176.186 33.0264C175.412 33.9387 174.547 34.6686 173.637 35.2616C172.727 35.809 171.816 36.2651 170.815 36.5845C169.859 36.9038 168.904 37.1319 167.948 37.2231C166.992 37.3599 166.082 37.4056 165.217 37.4056C163.442 37.4056 161.758 37.1319 160.165 36.5388C158.617 35.9458 157.252 35.0791 156.069 33.9387C154.885 32.7983 153.975 31.3386 153.292 29.6507C152.609 27.9629 152.291 25.9558 152.291 23.675C152.291 21.9872 152.564 20.345 153.156 18.8396C153.747 17.3343 154.567 15.9658 155.659 14.8254C156.751 13.685 158.071 12.7726 159.619 12.0884C161.212 11.4041 162.941 11.0848 164.898 11.0848ZM165.08 16.3763C163.624 16.3763 162.486 16.7869 161.667 17.6536C160.848 18.4747 160.301 19.6607 160.028 21.2117H169.541C169.541 20.6187 169.45 20.0257 169.313 19.4326C169.177 18.8396 168.904 18.3378 168.539 17.9273C168.175 17.4711 167.72 17.1062 167.174 16.8325C166.582 16.5132 165.9 16.3763 165.08 16.3763ZM180.191 37.0406V11.4954H184.697C185.061 11.4954 185.38 11.541 185.653 11.5866C185.926 11.6322 186.108 11.7691 186.29 11.9059C186.472 12.0428 186.609 12.2252 186.7 12.4533C186.791 12.6814 186.882 12.9551 186.927 13.2744L187.291 15.464C188.111 14.0955 189.021 13.0007 190.022 12.2252C191.069 11.4041 192.252 11.0392 193.572 11.0392C194.71 11.0392 195.666 11.3129 196.394 11.8603L195.894 17.4711C195.803 17.8361 195.666 18.0641 195.484 18.201C195.302 18.3378 195.029 18.3835 194.71 18.3835C194.574 18.3835 194.392 18.3835 194.21 18.3378C193.982 18.3378 193.754 18.2922 193.527 18.2922C193.299 18.2466 193.072 18.2466 192.799 18.201C192.571 18.1554 192.343 18.1554 192.161 18.1554C191.069 18.1554 190.159 18.4747 189.476 19.0677C188.839 19.6607 188.247 20.4818 187.792 21.531V37.0406H180.191ZM215.146 17.0606C214.964 17.3799 214.736 17.608 214.509 17.7448C214.281 17.8817 214.008 17.9273 213.69 17.9273C213.326 17.9273 212.961 17.8361 212.597 17.6992C212.233 17.5167 211.824 17.3799 211.414 17.1974C211.004 17.015 210.549 16.8325 210.003 16.6957C209.457 16.5132 208.865 16.4676 208.228 16.4676C207.272 16.4676 206.498 16.65 205.998 17.015C205.497 17.3799 205.224 17.8817 205.224 18.5203C205.224 18.9765 205.406 19.387 205.725 19.7063C206.089 20.0257 206.498 20.2994 207.09 20.5274C207.636 20.7555 208.273 20.9836 209.002 21.2117C209.684 21.4398 210.413 21.6679 211.186 21.9416C211.915 22.2153 212.643 22.5346 213.371 22.8995C214.054 23.2644 214.691 23.675 215.283 24.2224C215.829 24.7242 216.284 25.3628 216.603 26.0927C216.967 26.8225 217.103 27.7349 217.103 28.7384C217.103 30.0157 216.876 31.1561 216.42 32.2509C215.965 33.3001 215.283 34.258 214.372 34.9879C213.462 35.7634 212.37 36.3564 211.004 36.7669C209.684 37.1775 208.137 37.4056 206.407 37.4056C205.543 37.4056 204.678 37.3143 203.813 37.1775C202.948 37.0406 202.083 36.8125 201.264 36.4932C200.445 36.2195 199.717 35.9002 199.034 35.4897C198.351 35.0791 197.76 34.6686 197.259 34.2124L199.034 31.3842C199.216 31.0649 199.489 30.7912 199.762 30.6087C200.081 30.4262 200.445 30.335 200.946 30.335C201.401 30.335 201.765 30.4262 202.129 30.6087C202.493 30.7912 202.857 31.0192 203.267 31.2473C203.676 31.4754 204.132 31.7035 204.678 31.886C205.224 32.0684 205.952 32.1597 206.771 32.1597C207.363 32.1597 207.864 32.114 208.273 31.9772C208.683 31.8403 209.002 31.6579 209.275 31.4754C209.502 31.2473 209.684 31.0192 209.821 30.7455C209.957 30.4718 210.003 30.1981 210.003 29.9244C210.003 29.4227 209.821 29.0121 209.502 28.6472C209.138 28.3279 208.729 28.0542 208.137 27.8261C207.591 27.598 206.954 27.3699 206.225 27.1418C205.543 26.9138 204.814 26.6857 204.041 26.412C203.312 26.1383 202.584 25.819 201.856 25.454C201.173 25.0891 200.536 24.5873 199.944 24.0399C199.398 23.4469 198.943 22.7626 198.579 21.9416C198.215 21.1205 198.078 20.1169 198.078 18.9765C198.078 17.8817 198.306 16.8781 198.715 15.8746C199.125 14.871 199.762 14.0043 200.627 13.2744C201.446 12.5445 202.493 11.9515 203.768 11.541C205.042 11.0848 206.498 10.8567 208.182 10.8567C209.093 10.8567 210.003 10.948 210.822 11.0848C211.687 11.2673 212.506 11.4954 213.234 11.7691C214.008 12.0428 214.691 12.4077 215.283 12.8182C215.92 13.2288 216.466 13.6393 216.921 14.1411L215.146 17.0606ZM228.618 11.4954V37.0406H221.017V11.4954H228.618ZM229.438 4.47042C229.438 5.06344 229.301 5.65645 229.073 6.20385C228.846 6.75125 228.482 7.20741 228.072 7.61796C227.663 8.02851 227.162 8.34783 226.57 8.57591C226.024 8.80399 225.432 8.94084 224.795 8.94084C224.158 8.94084 223.612 8.80399 223.066 8.57591C222.519 8.34783 222.064 8.02851 221.609 7.61796C221.199 7.20741 220.881 6.75125 220.608 6.20385C220.38 5.65645 220.244 5.10905 220.244 4.47042C220.244 3.83179 220.38 3.28439 220.608 2.73699C220.835 2.18959 221.199 1.73343 221.609 1.32288C222.019 0.912331 222.519 0.593015 223.066 0.364932C223.612 0.13685 224.203 0 224.795 0C225.432 0 226.024 0.13685 226.57 0.364932C227.162 0.593015 227.663 0.912331 228.072 1.32288C228.482 1.73343 228.846 2.18959 229.073 2.73699C229.301 3.28439 229.438 3.87741 229.438 4.47042ZM243.046 37.4056C241.817 37.4056 240.771 37.2231 239.815 36.9038C238.905 36.5388 238.131 36.0371 237.494 35.3984C236.856 34.7598 236.401 33.9387 236.083 33.0264C235.764 32.114 235.582 31.0649 235.582 29.9244V16.7413H233.397C232.988 16.7413 232.669 16.6044 232.396 16.3763C232.123 16.1026 231.986 15.7377 231.986 15.2359V12.2708L236.037 11.4954L237.539 5.2459C237.721 4.47042 238.313 4.05987 239.223 4.05987H243.183V11.541H249.509V16.7413H243.183V29.4227C243.183 30.0157 243.319 30.5175 243.593 30.8824C243.866 31.2473 244.321 31.4298 244.867 31.4298C245.14 31.4298 245.368 31.3842 245.55 31.3386C245.732 31.2929 245.914 31.2017 246.05 31.1561C246.187 31.0649 246.323 31.0192 246.46 30.9736C246.596 30.928 246.733 30.8824 246.915 30.8824C247.143 30.8824 247.325 30.928 247.461 31.0649C247.598 31.1561 247.734 31.3386 247.916 31.5666L250.238 35.1703C249.236 35.9002 248.144 36.4476 246.915 36.8582C245.641 37.2231 244.366 37.4056 243.046 37.4056ZM263.391 43.655C263.164 44.1568 262.891 44.5217 262.572 44.7498C262.253 44.9779 261.707 45.1148 260.979 45.1148H255.29L260.205 34.7598L250.01 11.4497H256.746C257.338 11.4497 257.793 11.5866 258.112 11.8603C258.43 12.134 258.658 12.4533 258.84 12.8182L263.027 23.8118C263.437 24.8154 263.755 25.8646 263.983 26.8681C264.165 26.3207 264.302 25.819 264.484 25.3172C264.666 24.7698 264.893 24.268 265.075 23.7662L268.853 12.8182C268.99 12.4533 269.263 12.134 269.627 11.8603C269.991 11.5866 270.4 11.4497 270.856 11.4497H277L263.391 43.655Z" fill="white"/>
<path d="M6.4159 58.0245V58.8456H4.59532V63.9547H3.59401V58.8456H1.77344V58.0245H6.4159ZM14.0623 63.9547H13.1065V61.3089H10.1481V63.9547H9.19227V58.0245H10.1481V60.6247H13.1065V58.0245H14.0623V63.9547ZM21.117 58.0245V58.8H18.3862V60.5791H20.5708V61.3089H18.3862V63.1336H21.117V63.9091H17.4304V57.9789H21.117V58.0245ZM31.7218 59.0281C31.6763 59.0737 31.6763 59.1193 31.6308 59.1193C31.5853 59.1193 31.5398 59.165 31.4943 59.165C31.4488 59.165 31.4032 59.165 31.3122 59.1193C31.2667 59.0737 31.1757 59.0281 31.0846 58.9825C30.9936 58.9369 30.9026 58.8913 30.766 58.8456C30.6295 58.8 30.493 58.7544 30.3109 58.7544C30.1288 58.7544 29.9923 58.7544 29.8558 58.8C29.7192 58.8456 29.6282 58.8913 29.5372 58.9825C29.4461 59.0737 29.4006 59.165 29.3551 59.2562C29.3096 59.3474 29.3096 59.4843 29.3096 59.5755C29.3096 59.7124 29.3551 59.8492 29.4461 59.9404C29.5372 60.0317 29.6282 60.1229 29.7647 60.2141C29.9013 60.3054 30.0378 60.351 30.2199 60.3966C30.4019 60.4422 30.5385 60.4878 30.7205 60.5791C30.9026 60.6247 31.0846 60.7159 31.2212 60.7615C31.4032 60.8528 31.5398 60.944 31.6763 61.0352C31.8129 61.1721 31.9039 61.3089 31.9949 61.4458C32.086 61.6282 32.1315 61.8107 32.1315 62.0844C32.1315 62.3581 32.086 62.5862 31.9949 62.8143C31.9039 63.0424 31.7674 63.2248 31.5853 63.4073C31.4032 63.5898 31.2212 63.7266 30.9481 63.8178C30.7205 63.9091 30.4019 63.9547 30.0833 63.9547C29.9013 63.9547 29.7192 63.9547 29.5372 63.9091C29.3551 63.8635 29.173 63.8178 29.0365 63.7722C28.8544 63.7266 28.7179 63.6354 28.5814 63.5441C28.4448 63.4529 28.3083 63.3617 28.2172 63.2248L28.4903 62.7687C28.5358 62.723 28.5358 62.723 28.5814 62.6774C28.6269 62.6774 28.6724 62.6318 28.7179 62.6318C28.7634 62.6318 28.8544 62.6774 28.9455 62.723C29.0365 62.7687 29.1275 62.8599 29.2186 62.9055C29.3096 62.9967 29.4461 63.0424 29.6282 63.088C29.7647 63.1336 29.9468 63.1792 30.1744 63.1792C30.5385 63.1792 30.766 63.088 30.9936 62.9055C31.1757 62.723 31.2667 62.495 31.2667 62.2213C31.2667 62.0388 31.2212 61.9019 31.1302 61.8107C31.0391 61.7195 30.9481 61.6282 30.8116 61.537C30.675 61.4458 30.5385 61.4002 30.3564 61.3545C30.1744 61.3089 30.0378 61.2633 29.8558 61.2177C29.6737 61.1721 29.4916 61.0808 29.3551 61.0352C29.173 60.944 29.0365 60.8528 28.9 60.7615C28.7634 60.6247 28.6724 60.4878 28.5814 60.3054C28.4903 60.1229 28.4448 59.8948 28.4448 59.6211C28.4448 59.393 28.4903 59.2106 28.5814 58.9825C28.6724 58.8 28.8089 58.6176 28.9455 58.4351C29.1275 58.2982 29.3096 58.1614 29.5372 58.0702C29.7647 57.9789 30.0378 57.9333 30.3564 57.9333C30.675 57.9333 30.9936 57.9789 31.2667 58.1158C31.5398 58.207 31.8129 58.3895 31.9949 58.5719L31.7218 59.0281ZM40.0965 63.9547H39.1407V61.3089H36.1822V63.9547H35.2264V58.0245H36.1822V60.6247H39.1407V58.0245H40.0965V63.9547ZM49.1993 60.9896C49.1993 61.4458 49.1083 61.8107 48.9718 62.2213C48.8352 62.5862 48.6076 62.9055 48.3801 63.1792C48.107 63.4529 47.8339 63.6354 47.4698 63.8178C47.1057 63.9547 46.696 64.0459 46.2864 64.0459C45.8313 64.0459 45.4672 63.9547 45.103 63.8178C44.7389 63.681 44.4203 63.4529 44.1928 63.1792C43.9197 62.9055 43.7376 62.5862 43.6011 62.2213C43.4645 61.8563 43.3735 61.4458 43.3735 60.9896C43.3735 60.5334 43.4645 60.1685 43.6011 59.758C43.7376 59.393 43.9652 59.0737 44.1928 58.8C44.4658 58.5263 44.7844 58.3439 45.103 58.1614C45.4672 58.0245 45.8768 57.9333 46.2864 57.9333C46.7416 57.9333 47.1512 58.0245 47.4698 58.1614C47.8339 58.2982 48.1525 58.5263 48.3801 58.8C48.6532 59.0737 48.8352 59.393 48.9718 59.758C49.1083 60.1229 49.1993 60.5334 49.1993 60.9896ZM48.198 60.9896C48.198 60.6703 48.1525 60.351 48.0615 60.0773C47.9704 59.8036 47.8339 59.5755 47.6518 59.393C47.4698 59.2106 47.2877 59.0737 47.0146 58.9369C46.7416 58.8 46.514 58.8 46.1954 58.8C45.8768 58.8 45.6037 58.8456 45.3761 58.9369C45.1486 59.0281 44.921 59.165 44.7389 59.393C44.5569 59.5755 44.4203 59.8036 44.3293 60.0773C44.2383 60.351 44.1928 60.6703 44.1928 60.9896C44.1928 61.3545 44.2383 61.6282 44.3293 61.9019C44.4203 62.1756 44.5569 62.4037 44.7389 62.5862C44.921 62.7687 45.103 62.9055 45.3761 62.9967C45.6037 63.088 45.8768 63.1336 46.1954 63.1336C46.514 63.1336 46.7871 63.088 47.0146 62.9967C47.2422 62.9055 47.4698 62.7687 47.6518 62.5862C47.8339 62.4037 47.9704 62.1756 48.0615 61.9019C48.1525 61.6282 48.198 61.3089 48.198 60.9896ZM53.3411 61.537V63.9091H52.3853V57.9789H54.1149C54.5245 57.9789 54.8431 58.0245 55.1162 58.1158C55.3893 58.207 55.6168 58.2982 55.7989 58.4351C55.981 58.5719 56.1175 58.7544 56.2085 58.9825C56.2996 59.165 56.3451 59.4387 56.3451 59.6667C56.3451 59.8492 56.2996 60.0773 56.254 60.2598C56.2085 60.4422 56.1175 60.5791 55.981 60.7615C55.8444 60.8984 55.7079 61.0352 55.5713 61.1265C55.3893 61.2177 55.2072 61.3089 54.9796 61.3545C55.1162 61.4458 55.2072 61.537 55.2982 61.6739L56.8912 63.9091H55.981C55.7989 63.9091 55.7079 63.8634 55.6168 63.7266L54.2514 61.7195C54.2059 61.6282 54.1604 61.5826 54.1149 61.5826C54.0694 61.537 53.9783 61.537 53.8873 61.537H53.3411ZM53.3411 60.8528H54.1149C54.3424 60.8528 54.5245 60.8071 54.7066 60.7615C54.8886 60.7159 55.0252 60.6247 55.1162 60.5334C55.2072 60.4422 55.2982 60.3054 55.3438 60.2141C55.3893 60.0773 55.4348 59.9404 55.4348 59.758C55.4348 59.4387 55.3438 59.2106 55.1162 59.0281C54.8886 58.8456 54.57 58.7544 54.1604 58.7544H53.3866V60.8528H53.3411ZM63.5819 58.0245V58.8456H61.7613V63.9547H60.8055V58.8456H58.9394V58.0245H63.5819ZM70.2269 58.0245V58.8H67.4961V60.5791H69.6808V61.3089H67.4961V63.1336H70.2269V63.9091H66.5403V57.9789H70.2269V58.0245ZM76.4624 59.0281C76.4169 59.0737 76.4169 59.1193 76.3714 59.1193C76.3259 59.1193 76.2803 59.165 76.2348 59.165C76.1893 59.165 76.1438 59.165 76.0528 59.1193C76.0073 59.0737 75.9162 59.0281 75.8252 58.9825C75.7342 58.9369 75.6431 58.8913 75.5066 58.8456C75.37 58.8 75.2335 58.7544 75.0515 58.7544C74.8694 58.7544 74.7328 58.7544 74.5963 58.8C74.4598 58.8456 74.3687 58.8913 74.2777 58.9825C74.1867 59.0737 74.1412 59.165 74.0957 59.2562C74.0501 59.3474 74.0501 59.4843 74.0501 59.5755C74.0501 59.7124 74.0957 59.8492 74.1867 59.9404C74.2777 60.0317 74.3687 60.1229 74.5053 60.2141C74.6418 60.3054 74.7784 60.351 74.9604 60.3966C75.1425 60.4422 75.279 60.4878 75.4611 60.5791C75.6431 60.6247 75.8252 60.7159 75.9617 60.7615C76.0983 60.8071 76.2803 60.944 76.4169 61.0352C76.5534 61.1721 76.6445 61.3089 76.7355 61.4458C76.8265 61.6282 76.872 61.8107 76.872 62.0844C76.872 62.3581 76.8265 62.5862 76.7355 62.8143C76.6445 63.0424 76.5079 63.2248 76.3259 63.4073C76.1438 63.5898 75.9617 63.7266 75.6887 63.8178C75.4611 63.9091 75.1425 63.9547 74.8239 63.9547C74.6418 63.9547 74.4598 63.9547 74.2777 63.9091C74.0956 63.8635 73.9136 63.8178 73.7771 63.7722C73.595 63.7266 73.4585 63.6354 73.3219 63.5441C73.1854 63.4529 73.0488 63.3617 72.9578 63.2248L73.2309 62.7687C73.2764 62.723 73.2764 62.723 73.3219 62.6774C73.3674 62.6318 73.4129 62.6318 73.4585 62.6318C73.504 62.6318 73.595 62.6774 73.686 62.723C73.7771 62.7687 73.8681 62.8599 73.9591 62.9055C74.0501 62.9967 74.1867 63.0424 74.3687 63.088C74.5053 63.1336 74.6873 63.1792 74.9149 63.1792C75.279 63.1792 75.5521 63.088 75.7342 62.9055C75.9162 62.723 76.0073 62.495 76.0073 62.2213C76.0073 62.0388 75.9617 61.9019 75.8707 61.8107C75.7797 61.7195 75.6887 61.6282 75.5521 61.537C75.4156 61.4458 75.279 61.4002 75.097 61.3545C74.9149 61.3089 74.7784 61.2633 74.5963 61.2177C74.4143 61.1721 74.2322 61.0808 74.0957 61.0352C73.9136 60.944 73.7771 60.8528 73.6405 60.7615C73.504 60.6247 73.4129 60.4878 73.3219 60.3054C73.2309 60.1229 73.1854 59.8948 73.1854 59.6211C73.1854 59.393 73.2309 59.2106 73.3219 58.9825C73.4129 58.8 73.5495 58.6176 73.686 58.4351C73.8681 58.2982 74.0501 58.1614 74.2777 58.0702C74.5053 57.9789 74.7784 57.9333 75.097 57.9333C75.4156 57.9333 75.7342 57.9789 76.0073 58.1158C76.2803 58.207 76.5534 58.3895 76.7355 58.5719L76.4624 59.0281ZM84.0633 58.0245V58.8456H82.2427V63.9547H81.2869V58.8456H79.4208V58.0245H84.0633ZM90.8904 58.0245H91.7097C91.8007 58.0245 91.8462 58.0245 91.8917 58.0702C91.9373 58.1158 91.9828 58.1614 92.0283 58.2526L93.1206 62.0388C93.1206 62.13 93.1661 62.2213 93.1661 62.3125C93.1661 62.4037 93.2117 62.495 93.2117 62.5862C93.2117 62.495 93.2572 62.4037 93.2572 62.2669C93.3027 62.1756 93.3027 62.0844 93.3482 61.9932L94.6226 58.207C94.6226 58.1614 94.6681 58.1158 94.7591 58.0702C94.8047 58.0245 94.8957 57.9789 94.9412 57.9789H95.2143C95.3053 57.9789 95.3508 57.9789 95.3963 58.0245C95.4419 58.0702 95.4874 58.1158 95.5329 58.1614L96.8073 61.9476C96.8528 62.0388 96.8528 62.13 96.8983 62.2213C96.8983 62.3125 96.9438 62.4037 96.9438 62.495C96.9438 62.4037 96.9893 62.3125 96.9893 62.2213C96.9893 62.13 97.0349 62.0388 97.0349 61.9476L98.1272 58.1614C98.1272 58.1158 98.1727 58.0702 98.2182 58.0245C98.2637 57.9789 98.3548 57.9789 98.4458 57.9789H99.174L97.3535 63.9091H96.4887L95.1233 59.6667C95.1233 59.6211 95.0777 59.5755 95.0777 59.5299C95.0777 59.4843 95.0322 59.4387 95.0322 59.3474C95.0322 59.393 94.9867 59.4843 94.9867 59.5299C94.9867 59.5755 94.9412 59.6211 94.9412 59.6667L93.5303 63.9091H92.6655L90.8904 58.0245ZM108.368 63.9547H107.64C107.549 63.9547 107.503 63.9547 107.458 63.9091C107.412 63.8635 107.367 63.8178 107.321 63.7266L106.82 62.4037H104.272L103.771 63.7266C103.771 63.7722 103.725 63.8178 103.634 63.8635C103.589 63.9091 103.498 63.9547 103.452 63.9547H102.724L105.045 58.0245H106.001L108.368 63.9547ZM104.545 61.7195H106.547L105.728 59.5755C105.683 59.4843 105.683 59.393 105.637 59.3018C105.592 59.2106 105.592 59.0737 105.546 58.9369C105.501 59.0737 105.501 59.165 105.455 59.3018C105.409 59.393 105.409 59.4843 105.364 59.5755L104.545 61.7195ZM114.603 61.6282V63.9547H113.648V61.6282L111.508 58.0245H112.328C112.419 58.0245 112.464 58.0245 112.51 58.0702C112.555 58.1158 112.601 58.1614 112.646 58.207L113.875 60.3054C113.921 60.3966 113.966 60.5334 114.012 60.6247C114.057 60.7159 114.103 60.8071 114.148 60.8984C114.194 60.8071 114.239 60.7159 114.285 60.6247C114.33 60.5334 114.376 60.4422 114.421 60.3054L115.605 58.207C115.65 58.1614 115.65 58.1158 115.741 58.0702C115.787 58.0245 115.878 57.9789 115.923 57.9789H116.788L114.603 61.6282ZM130.989 58.0245V58.8456H129.168V63.9547H128.212V58.8456H126.346V58.0245H130.989ZM141.047 60.9896C141.047 61.4458 140.956 61.8107 140.82 62.2213C140.683 62.6318 140.456 62.9055 140.228 63.1792C139.955 63.4529 139.682 63.6354 139.318 63.8178C138.954 63.9547 138.544 64.0459 138.134 64.0459C137.679 64.0459 137.315 63.9547 136.951 63.8178C136.587 63.681 136.268 63.4529 136.041 63.1792C135.768 62.9055 135.585 62.5862 135.449 62.2213C135.312 61.8563 135.221 61.4458 135.221 60.9896C135.221 60.5334 135.312 60.1685 135.449 59.758C135.585 59.393 135.813 59.0737 136.041 58.8C136.314 58.5263 136.632 58.3439 136.951 58.1614C137.315 58.0245 137.725 57.9333 138.134 57.9333C138.589 57.9333 138.999 58.0245 139.318 58.1614C139.682 58.2982 140 58.5263 140.228 58.8C140.501 59.0737 140.683 59.393 140.82 59.758C141.002 60.1229 141.047 60.5334 141.047 60.9896ZM140.091 60.9896C140.091 60.6703 140.046 60.351 139.955 60.0773C139.864 59.8036 139.727 59.5755 139.545 59.393C139.363 59.2106 139.181 59.0737 138.908 58.9369C138.635 58.8 138.407 58.8 138.089 58.8C137.77 58.8 137.497 58.8456 137.27 58.9369C137.042 59.0281 136.814 59.165 136.632 59.393C136.45 59.5755 136.314 59.8036 136.223 60.0773C136.132 60.351 136.086 60.6703 136.086 60.9896C136.086 61.3545 136.132 61.6282 136.223 61.9019C136.314 62.1756 136.45 62.4037 136.632 62.5862C136.814 62.7687 136.996 62.9055 137.27 62.9967C137.497 63.088 137.77 63.1336 138.089 63.1336C138.407 63.1336 138.68 63.088 138.908 62.9967C139.136 62.9055 139.363 62.7687 139.545 62.5862C139.727 62.4037 139.864 62.1756 139.955 61.9019C140.046 61.6282 140.091 61.3089 140.091 60.9896ZM156.704 63.9547H155.976C155.885 63.9547 155.839 63.9547 155.794 63.9091C155.748 63.8635 155.703 63.8178 155.657 63.7266L155.157 62.4037H152.608L152.107 63.7266C152.107 63.7722 152.062 63.8178 151.971 63.8635C151.925 63.9091 151.834 63.9547 151.743 63.9547H151.015L153.336 58.0245H154.292L156.704 63.9547ZM152.835 61.7195H154.838L154.019 59.5755C153.973 59.4843 153.973 59.393 153.928 59.3018C153.882 59.2106 153.882 59.0737 153.837 58.9369C153.791 59.0737 153.791 59.165 153.746 59.3018C153.7 59.393 153.7 59.4843 153.655 59.5755L152.835 61.7195ZM167.491 58.0245C167.536 58.0245 167.582 58.0245 167.582 58.0245C167.628 58.0245 167.628 58.0245 167.673 58.0245C167.719 58.0245 167.719 58.0702 167.764 58.0702C167.81 58.0702 167.81 58.1158 167.855 58.1614L171.087 62.3581C171.087 62.2669 171.087 62.1756 171.087 62.13C171.087 62.0388 171.087 61.9932 171.087 61.9019V58.0245H171.906V63.9547H171.405C171.314 63.9547 171.269 63.9547 171.223 63.9091C171.178 63.8635 171.132 63.8178 171.087 63.7722L167.855 59.6211C167.855 59.7124 167.855 59.758 167.855 59.8492C167.855 59.9404 167.855 59.9861 167.855 60.0773V63.9547H166.99V58.0245H167.491ZM180.918 58.0245V58.8H178.187V60.5791H180.372V61.3089H178.187V63.1336H180.918V63.9091H177.231V57.9789H180.918V58.0245ZM185.287 58.0245H186.106C186.197 58.0245 186.243 58.0245 186.334 58.0702C186.379 58.1158 186.425 58.1614 186.47 58.2526L187.563 62.0388C187.563 62.13 187.608 62.2213 187.608 62.3125C187.608 62.4037 187.654 62.495 187.654 62.5862C187.654 62.495 187.699 62.4037 187.699 62.2669C187.745 62.1756 187.745 62.0844 187.79 61.9932L189.065 58.207C189.065 58.1614 189.11 58.1158 189.201 58.0702C189.247 58.0245 189.338 57.9789 189.429 57.9789H189.702C189.793 57.9789 189.839 57.9789 189.884 58.0245C189.93 58.0702 189.975 58.1158 190.021 58.1614L191.295 61.9476C191.34 62.0388 191.34 62.13 191.386 62.2213C191.386 62.3125 191.432 62.4037 191.432 62.495C191.432 62.4037 191.477 62.3125 191.477 62.2213C191.477 62.13 191.523 62.0388 191.523 61.9476L192.615 58.1614C192.615 58.1158 192.66 58.0702 192.706 58.0245C192.751 57.9789 192.842 57.9789 192.933 57.9789H193.662L191.841 63.9091H190.976L189.611 59.6667C189.611 59.6211 189.565 59.5755 189.565 59.5299C189.565 59.4843 189.52 59.4387 189.52 59.3474C189.52 59.393 189.474 59.4843 189.474 59.5299C189.474 59.5755 189.429 59.6211 189.429 59.6667L188.018 63.9091H187.153L185.287 58.0245ZM208.272 62.6318C208.317 62.6318 208.363 62.6318 208.408 62.6774L208.772 63.088C208.545 63.3617 208.226 63.5898 207.908 63.7722C207.544 63.9091 207.134 64.0003 206.633 64.0003C206.224 64.0003 205.814 63.9091 205.45 63.7722C205.086 63.6354 204.813 63.4073 204.54 63.1336C204.312 62.8599 204.084 62.5406 203.948 62.1756C203.811 61.8107 203.766 61.4002 203.766 60.944C203.766 60.4878 203.857 60.0773 203.993 59.7124C204.13 59.3474 204.312 59.0281 204.585 58.7544C204.858 58.4807 205.131 58.2982 205.495 58.1158C205.86 57.9789 206.224 57.8877 206.679 57.8877C207.088 57.8877 207.498 57.9789 207.817 58.1158C208.135 58.2526 208.408 58.4351 208.681 58.6632L208.363 59.1193C208.363 59.165 208.317 59.165 208.272 59.2106C208.226 59.2106 208.181 59.2562 208.135 59.2562C208.09 59.2562 207.999 59.2106 207.953 59.165C207.908 59.1193 207.817 59.0737 207.68 58.9825C207.589 58.9369 207.453 58.8456 207.27 58.8C207.088 58.7544 206.906 58.7088 206.679 58.7088C206.406 58.7088 206.133 58.7544 205.905 58.8456C205.677 58.9369 205.45 59.0737 205.313 59.2562C205.177 59.4387 204.995 59.6667 204.904 59.9404C204.813 60.2141 204.767 60.5334 204.767 60.8528C204.767 61.2177 204.813 61.4914 204.904 61.7651C204.995 62.0388 205.131 62.2669 205.313 62.4493C205.495 62.6318 205.677 62.7687 205.905 62.8599C206.133 62.9511 206.406 62.9967 206.633 62.9967C206.815 62.9967 206.952 62.9967 207.088 62.9511C207.225 62.9511 207.361 62.9055 207.453 62.8599C207.544 62.8143 207.68 62.7687 207.771 62.723C207.862 62.6774 207.953 62.5862 208.044 62.495C208.181 62.6318 208.226 62.6318 208.272 62.6318ZM218.831 60.9896C218.831 61.4458 218.74 61.8107 218.604 62.2213C218.467 62.5862 218.239 62.9055 218.012 63.1792C217.739 63.4529 217.466 63.6354 217.102 63.8178C216.737 63.9547 216.328 64.0459 215.918 64.0459C215.463 64.0459 215.099 63.9547 214.735 63.8178C214.371 63.681 214.052 63.4529 213.825 63.1792C213.551 62.9055 213.369 62.5862 213.233 62.2213C213.096 61.8563 213.005 61.4458 213.005 60.9896C213.005 60.5334 213.096 60.1685 213.233 59.758C213.369 59.393 213.597 59.0737 213.825 58.8C214.098 58.5263 214.416 58.3439 214.735 58.1614C215.099 58.0245 215.509 57.9333 215.918 57.9333C216.373 57.9333 216.783 58.0245 217.102 58.1614C217.466 58.2982 217.784 58.5263 218.012 58.8C218.285 59.0737 218.467 59.393 218.604 59.758C218.74 60.1229 218.831 60.5334 218.831 60.9896ZM217.83 60.9896C217.83 60.6703 217.784 60.351 217.693 60.0773C217.602 59.8036 217.466 59.5755 217.284 59.393C217.102 59.2106 216.92 59.0737 216.646 58.9369C216.373 58.8 216.146 58.8 215.827 58.8C215.509 58.8 215.235 58.8456 215.008 58.9369C214.78 59.0281 214.553 59.165 214.371 59.393C214.189 59.5755 214.052 59.8036 213.961 60.0773C213.87 60.351 213.825 60.6703 213.825 60.9896C213.825 61.3545 213.87 61.6282 213.961 61.9019C214.052 62.1756 214.189 62.4037 214.371 62.5862C214.553 62.7687 214.735 62.9055 215.008 62.9967C215.235 63.088 215.509 63.1336 215.827 63.1336C216.146 63.1336 216.419 63.088 216.646 62.9967C216.874 62.9055 217.102 62.7687 217.284 62.5862C217.466 62.4037 217.602 62.1756 217.693 61.9019C217.784 61.6282 217.83 61.3089 217.83 60.9896ZM224.111 58.0245C224.156 58.0245 224.202 58.0245 224.202 58.0245C224.247 58.0245 224.247 58.0245 224.293 58.0245C224.338 58.0245 224.338 58.0702 224.384 58.0702C224.429 58.0702 224.429 58.1158 224.475 58.1614L227.706 62.3581C227.706 62.2669 227.706 62.1756 227.706 62.13C227.706 62.0388 227.706 61.9932 227.706 61.9019V58.0245H228.526V63.9547H228.025C227.934 63.9547 227.888 63.9547 227.843 63.9091C227.797 63.8635 227.752 63.8178 227.706 63.7722L224.475 59.6211C224.475 59.7124 224.475 59.758 224.475 59.8492C224.475 59.9404 224.475 59.9861 224.475 60.0773V63.9547H223.61V58.0245H224.111ZM236.764 59.0281C236.718 59.0737 236.718 59.1193 236.673 59.1193C236.627 59.1193 236.582 59.165 236.536 59.165C236.491 59.165 236.445 59.165 236.354 59.1193C236.309 59.0737 236.218 59.0281 236.127 58.9825C236.035 58.9369 235.944 58.8913 235.808 58.8456C235.671 58.8 235.535 58.7544 235.353 58.7544C235.171 58.7544 235.034 58.7544 234.898 58.8C234.761 58.8456 234.67 58.8913 234.579 58.9825C234.488 59.0737 234.443 59.165 234.397 59.2562C234.351 59.3474 234.352 59.4843 234.352 59.5755C234.352 59.7124 234.397 59.8492 234.488 59.9404C234.579 60.0317 234.67 60.1229 234.807 60.2141C234.943 60.3054 235.08 60.351 235.262 60.3966C235.444 60.4422 235.58 60.4878 235.762 60.5791C235.944 60.6247 236.127 60.7159 236.263 60.7615C236.445 60.8528 236.582 60.944 236.718 61.0352C236.855 61.1721 236.946 61.3089 237.037 61.4458C237.128 61.5826 237.173 61.8107 237.173 62.0844C237.173 62.3581 237.128 62.5862 237.037 62.8143C236.946 63.0424 236.809 63.2248 236.627 63.4073C236.445 63.5898 236.263 63.7266 235.99 63.8178C235.762 63.9091 235.444 63.9547 235.125 63.9547C234.943 63.9547 234.761 63.9547 234.579 63.9091C234.397 63.8635 234.215 63.8178 234.078 63.7722C233.896 63.7266 233.76 63.6354 233.623 63.5441C233.487 63.4529 233.35 63.3617 233.259 63.2248L233.532 62.7687C233.578 62.723 233.578 62.723 233.623 62.6774C233.669 62.6774 233.714 62.6318 233.76 62.6318C233.805 62.6318 233.896 62.6774 233.987 62.723C234.078 62.7687 234.169 62.8599 234.26 62.9055C234.351 62.9967 234.488 63.0424 234.67 63.088C234.807 63.1336 234.989 63.1792 235.216 63.1792C235.58 63.1792 235.853 63.088 236.035 62.9055C236.218 62.723 236.309 62.495 236.309 62.2213C236.309 62.0388 236.263 61.9019 236.172 61.8107C236.081 61.7195 235.99 61.6282 235.853 61.537C235.717 61.4458 235.58 61.4002 235.398 61.3545C235.216 61.3089 235.08 61.2633 234.898 61.2177C234.716 61.1721 234.534 61.0808 234.397 61.0352C234.215 60.944 234.078 60.8528 233.942 60.7615C233.805 60.6247 233.714 60.4878 233.623 60.3054C233.532 60.1229 233.487 59.8948 233.487 59.6211C233.487 59.393 233.532 59.2106 233.623 58.9825C233.714 58.8 233.851 58.6176 233.987 58.4351C234.169 58.2982 234.352 58.1614 234.579 58.0702C234.807 57.9789 235.08 57.9333 235.398 57.9333C235.717 57.9333 236.036 57.9789 236.309 58.1158C236.582 58.207 236.855 58.3895 237.037 58.5719L236.764 59.0281ZM244.274 63.1792C244.501 63.1792 244.683 63.1336 244.865 63.0424C245.047 62.9511 245.184 62.8599 245.32 62.723C245.457 62.5862 245.548 62.4037 245.593 62.2213C245.639 62.0388 245.685 61.8107 245.685 61.5826V58.0245H246.64V61.5826C246.64 61.9476 246.595 62.2669 246.458 62.5406C246.367 62.8143 246.185 63.088 246.003 63.3161C245.776 63.5441 245.548 63.681 245.229 63.8178C244.956 63.9547 244.592 64.0003 244.228 64.0003C243.864 64.0003 243.5 63.9547 243.227 63.8178C242.954 63.681 242.681 63.5441 242.453 63.3161C242.225 63.088 242.089 62.8599 241.952 62.5406C241.861 62.2669 241.77 61.9019 241.77 61.5826V58.0245H242.726V61.5826C242.726 61.8107 242.772 62.0388 242.817 62.2213C242.863 62.4037 242.999 62.5862 243.09 62.723C243.227 62.8599 243.363 62.9511 243.545 63.0424C243.818 63.1336 244.046 63.1792 244.274 63.1792ZM254.696 61.6282C254.742 61.7195 254.787 61.8107 254.833 61.8563C254.878 61.9476 254.924 62.0388 254.924 62.13C254.969 62.0388 254.969 61.9476 255.015 61.8563C255.06 61.7651 255.106 61.6739 255.151 61.6282L257.018 58.207C257.063 58.1158 257.109 58.0702 257.154 58.0702C257.2 58.0702 257.245 58.0245 257.336 58.0245H258.064V63.9547H257.2V59.8948C257.2 59.8492 257.2 59.758 257.2 59.6667C257.2 59.5755 257.2 59.5299 257.2 59.4387L255.288 62.9511C255.197 63.088 255.106 63.1792 254.969 63.1792H254.833C254.696 63.1792 254.56 63.088 254.514 62.9511L252.603 59.4387C252.603 59.5299 252.603 59.6211 252.603 59.6667C252.603 59.758 252.603 59.8036 252.603 59.8948V63.9547H251.738V58.0245H252.466C252.557 58.0245 252.603 58.0245 252.648 58.0702C252.694 58.0702 252.739 58.1158 252.785 58.207L254.696 61.6282ZM266.849 58.0245V58.8H264.118V60.5791H266.302V61.3089H264.118V63.1336H266.849V63.9091H263.162V57.9789H266.849V58.0245ZM272.629 61.537V63.9091H271.673V57.9789H273.403C273.812 57.9789 274.131 58.0245 274.404 58.1158C274.677 58.207 274.905 58.2982 275.087 58.4351C275.269 58.5719 275.405 58.7544 275.496 58.9825C275.587 59.165 275.633 59.4387 275.633 59.6667C275.633 59.8492 275.587 60.0773 275.542 60.2598C275.496 60.4422 275.405 60.5791 275.269 60.7615C275.132 60.8984 274.996 61.0352 274.859 61.1265C274.677 61.2177 274.495 61.3089 274.267 61.3545C274.404 61.4458 274.495 61.537 274.586 61.6739L276.179 63.9091H275.314C275.132 63.9091 275.041 63.8634 274.95 63.7266L273.585 61.7195C273.539 61.6282 273.494 61.5826 273.448 61.5826C273.403 61.537 273.312 61.537 273.221 61.537H272.629ZM272.629 60.8528H273.403C273.63 60.8528 273.812 60.8071 273.994 60.7615C274.176 60.7159 274.313 60.6247 274.404 60.5334C274.495 60.4422 274.586 60.3054 274.632 60.2141C274.677 60.0773 274.723 59.9404 274.723 59.758C274.723 59.4387 274.632 59.2106 274.404 59.0281C274.176 58.8456 273.858 58.7544 273.448 58.7544H272.629V60.8528Z" fill="white"/>
</g>
<defs>
<clipPath id="clip0">
<rect width="277" height="64" fill="white"/>
</clipPath>
</defs>
</svg>
