<svg width="87" height="37" viewBox="0 0 87 37" fill="none" xmlns="http://www.w3.org/2000/svg">
<path d="M65.1733 7.47144C61.5377 7.47144 58.6022 9.99083 58.6022 13.8771C58.6022 17.7634 61.5377 20.2828 65.1733 20.2828C68.809 20.2828 71.7445 17.7634 71.7445 13.8771C71.7445 9.99083 68.809 7.47144 65.1733 7.47144ZM65.1733 16.9862C63.4228 16.9862 62.1571 15.7533 62.1571 13.8771C62.1571 12.001 63.4228 10.7681 65.1733 10.7681C66.9238 10.7681 68.1896 12.001 68.1896 13.8771C68.1896 15.7533 66.9238 16.9862 65.1733 16.9862ZM36.5457 13.7163C36.5457 16.3429 38.2963 16.6645 40.2622 16.6645C41.3394 16.6645 42.4975 16.4501 43.3862 16.2089L43.4401 19.5056C42.282 19.9076 40.8816 20.122 39.4812 20.122C35.8994 20.122 32.8562 18.2459 32.8562 13.8235C32.8562 10.1516 35.28 7.47144 39.4812 7.47144C40.9355 7.47144 42.4705 7.76626 43.7094 8.40951L42.5244 11.4381C41.7165 11.1433 40.5854 10.9557 39.6159 10.9557C37.5422 10.9289 36.5457 11.867 36.5457 13.7163ZM46.2947 7.71265H57.0402L56.3938 10.9289H53.2699V20.0684H49.7419V10.9021H46.3217V7.71265H46.2947ZM80.2547 23.7135C76.619 23.7135 73.6835 26.2329 73.6835 30.1192C73.6835 34.0055 76.619 36.5249 80.2547 36.5249C83.8903 36.5249 86.8258 34.0055 86.8258 30.1192C86.8258 26.2329 83.8903 23.7135 80.2547 23.7135ZM80.2547 33.2282C78.5042 33.2282 77.2384 31.9953 77.2384 30.1192C77.2384 28.243 78.5042 27.0102 80.2547 27.0102C82.0052 27.0102 83.2709 28.243 83.2709 30.1192C83.2709 31.9953 82.0052 33.2282 80.2547 33.2282ZM53.2699 23.7135C49.6342 23.7135 46.6987 26.2329 46.6987 30.1192C46.6987 34.0055 49.6342 36.5249 53.2699 36.5249C56.9055 36.5249 59.841 34.0055 59.841 30.1192C59.841 26.2329 56.9055 23.7135 53.2699 23.7135ZM53.2699 33.2282C51.5193 33.2282 50.2536 31.9953 50.2536 30.1192C50.2536 28.243 51.5193 27.0102 53.2699 27.0102C55.0204 27.0102 56.2861 28.243 56.2861 30.1192C56.2861 31.9953 55.0204 33.2282 53.2699 33.2282ZM34.095 23.9547H43.4939V36.3105H39.966V27.171H37.1652L36.8689 31.3789C36.6265 33.9251 36.5457 36.3373 32.937 36.3373H31.375L31.8059 33.3354C33.8257 33.3086 33.6103 32.8798 34.095 23.9547ZM72.31 23.9547L71.6637 27.171H68.5397V36.3105H64.9848V27.171H61.8608L61.2145 23.9547H72.31Z" fill="black"/>
<path d="M20.0097 5.86333L17.8014 7.01582C17.5859 7.12303 17.2897 7.04262 17.1819 6.82821L14.5696 1.81622C14.4619 1.6018 14.5427 1.30698 14.7582 1.19977L16.9665 0.0472801C17.2358 -0.0599282 17.5051 0.020478 17.6128 0.234895L20.2251 5.24689C20.3329 5.4613 20.2521 5.75612 20.0097 5.86333ZM11.9304 31.1913C12.1728 30.6821 12.3882 29.9852 12.4152 29.4224C12.4152 29.4224 12.7114 26.0453 12.7383 24.9196C12.7653 24.1424 12.0651 22.3734 11.688 21.5426C10.9878 19.8808 9.58742 19.6396 7.43294 18.7015C6.32877 18.2191 3.58182 17.2006 3.58182 17.2006C3.0432 16.9862 2.88161 16.477 3.07013 15.9677C3.25864 15.4317 3.93192 15.2441 4.47054 15.4317C5.97867 15.9409 7.35215 16.5574 9.91059 17.5222C11.5803 18.1387 12.3344 17.7367 13.4385 17.1202C14.2195 16.6914 15.0544 16.3698 15.2429 15.0028C15.3506 14.172 15.8623 10.2053 15.997 8.99918C15.997 8.94557 15.9701 8.89197 15.9162 8.89197C15.1352 8.75796 14.3273 8.67755 13.5193 8.67755C6.05946 8.67755 0 14.6812 0 22.1054C0 28.2699 4.1743 33.4695 9.85673 35.0508C9.93752 35.0776 10.0452 35.024 10.0722 34.9436L11.9304 31.1913ZM27.0117 22.695C26.7155 29.6904 20.9792 35.3456 13.9502 35.56C13.4116 35.5868 12.873 35.5601 12.3613 35.5064C12.2536 35.5064 12.1997 35.3724 12.2536 35.292L14.1387 31.9418C14.4081 31.4593 14.5966 30.9501 14.6774 30.414C14.7582 29.6904 15.0544 27.5194 15.0544 27.5194C15.0813 26.9566 15.3776 26.3669 15.9162 26.1793L16.8588 25.9381C17.3974 25.7505 17.8283 25.9381 18.0707 26.4205C18.2592 26.7422 18.7439 27.7338 18.9594 28.1359C19.094 28.4039 19.0402 28.6451 18.9055 28.8059C18.2053 29.5832 17.7744 30.0656 17.1819 30.7357C16.778 31.1913 16.4548 31.8614 17.1281 32.451C17.7744 33.0138 18.4208 32.4242 18.7978 32.0222C19.3095 31.5397 20.0636 30.6017 20.5483 30.0388C20.9792 29.5564 21.2216 29.208 21.2754 28.6183C21.3024 28.3771 21.2754 28.1091 21.1947 27.841C21.0061 27.2514 19.5788 23.8743 18.5824 21.1941C17.7206 18.8891 17.2897 16.477 17.559 14.0112L18.0168 9.53522C18.0168 9.48162 18.0976 9.42801 18.1515 9.45481C23.4838 11.4114 27.2541 16.6378 27.0117 22.695ZM8.64483 13.6895C8.51018 12.269 9.56049 11.0093 10.9878 10.8753C12.4152 10.7413 13.6809 11.7866 13.8156 13.2071C13.9502 14.6276 12.8999 15.8873 11.4726 16.0213C10.0452 16.1285 8.77949 15.1101 8.64483 13.6895ZM11.3379 15.2977C10.7185 15.3513 10.153 15.1369 9.749 14.7348C9.72207 14.708 9.749 14.6276 9.80287 14.6544C10.0991 14.7348 10.3953 14.7348 10.7185 14.708C11.7688 14.6008 12.6306 13.9308 13.0076 13.0195C13.0346 12.9659 13.0884 12.9927 13.1154 13.0195C13.277 14.1452 12.469 15.1905 11.3379 15.2977Z" fill="black"/>
</svg>
