<svg width="113" height="28" viewBox="0 0 113 28" fill="none" xmlns="http://www.w3.org/2000/svg">
<path d="M96.2963 16.618H99.1267V13.2588L100.223 12.172L103.034 16.618H106.422L102.216 10.3936L105.984 6.54042H102.655L99.1267 10.2751V2.62793H96.2963V16.618Z" fill="#023F88"/>
<path fill-rule="evenodd" clip-rule="evenodd" d="M77.5193 16.6179V11.7965C78.3166 11.7965 79.1139 11.7965 79.1139 11.7965C82.5224 11.8558 85.2134 10.8875 85.2134 7.15286C85.2134 4.10981 82.8414 2.48949 79.4129 2.62781H74.5094V16.6179H77.5193ZM79.5524 5.03854C81.2467 4.97926 82.3032 5.6511 82.3231 7.19238C82.3431 8.75343 81.167 9.40551 79.6322 9.36599H77.5392V5.03854H79.5524Z" fill="#023F88"/>
<path fill-rule="evenodd" clip-rule="evenodd" d="M87.8645 9.70201C87.8645 9.70201 87.6851 8.16072 89.8778 8.18048C90.7947 8.20024 91.6119 8.63497 91.5521 9.44513C91.5123 10.0379 91.0139 10.1762 90.0372 10.3343C88.4226 10.5319 87.2865 10.7888 86.529 11.1643C85.5324 11.6385 84.6952 12.666 84.7749 13.9109C84.8945 15.8474 86.9077 16.9737 88.8811 16.8947C91.1734 16.7959 91.592 15.4324 91.592 15.4324C91.6319 15.6498 91.6319 15.6695 91.6717 15.9857C91.7315 16.4402 91.8312 16.6378 91.8312 16.6378H94.7215C94.562 16.4995 94.5022 16.4402 94.4025 16.2821C94.3029 16.0647 94.2829 15.8474 94.2829 15.6103V9.80081C94.2829 6.95536 91.9907 6.244 89.7183 6.20448C85.4726 6.1452 85.4726 9.14873 85.3928 9.62297L87.8645 9.70201ZM89.519 14.8594C88.6618 14.9384 87.5655 14.7013 87.5057 13.6343C87.4659 12.587 88.9608 12.2906 89.6984 12.1523C90.2964 12.0337 90.8744 11.8756 91.293 11.6978C91.5322 11.599 91.592 11.5199 91.592 11.5199V12.9229C91.5521 13.9504 90.8345 14.7211 89.519 14.8594Z" fill="#023F88"/>
<path d="M33.2681 16.6183V5.11793H37.5737V2.6084H26.0325V5.11793H30.2583V16.6183H33.2681Z" fill="#023F88"/>
<path fill-rule="evenodd" clip-rule="evenodd" d="M35.4209 11.8955C35.6202 15.6302 38.7896 17.0331 40.7031 16.9739C44.8293 16.8553 45.6266 13.6344 45.6266 13.6344L42.7363 13.4566C42.7363 13.4566 42.2778 14.741 40.6832 14.741C38.2514 14.7212 38.1916 12.3302 38.1916 12.3302H45.7262C45.7262 12.3302 46.0053 6.32318 40.4241 6.24414C37.2547 6.18486 35.2614 8.83271 35.4209 11.8955ZM42.7562 10.374H38.2713C38.2713 10.374 38.4706 8.43751 40.4639 8.43751C42.4572 8.41775 42.7562 10.374 42.7562 10.374Z" fill="#023F88"/>
<path d="M53.6596 16.6181H56.4701V12.0338C56.4701 10.7494 56.7293 9.58356 57.8854 9.03028C58.4834 8.73388 58.9618 8.69436 59.6195 8.79316V6.40219C59.5199 6.34291 59.201 6.32315 58.882 6.30339C57.985 6.26387 57.108 6.77764 56.5897 7.6866C56.5499 7.76564 56.51 7.82492 56.4303 8.02252L56.3306 6.58003H53.6396V16.6181H53.6596Z" fill="#023F88"/>
<path d="M45.9256 8.477H47.3209V13.6146C47.3209 14.4445 47.4006 15.4918 48.2179 16.0846C49.0152 16.6774 50.1314 16.5984 51.148 16.5984C51.5865 16.5984 52.0251 16.5984 52.0251 16.5984V14.5236H51.3673C50.9088 14.5236 50.6497 14.5038 50.4105 14.326C50.0517 14.0493 50.0716 13.6146 50.0716 13.3775V8.477H51.9453V6.58004H50.0716V3.39867L47.3009 3.37891V6.56028L45.9056 6.58004V8.477H45.9256Z" fill="#023F88"/>
<path fill-rule="evenodd" clip-rule="evenodd" d="M62.709 9.68242C62.709 9.68242 62.5297 8.14113 64.7223 8.16089C65.6392 8.18065 66.4565 8.61537 66.3967 9.42554C66.3568 10.0183 65.8585 10.1567 64.8817 10.295C63.2672 10.4926 62.131 10.7495 61.3536 11.1249C60.357 11.5991 59.5198 12.6267 59.5995 13.8715C59.7191 15.808 61.7323 16.9344 63.7057 16.8553C65.998 16.7565 66.4166 15.3931 66.4166 15.3931C66.4564 15.6104 66.4565 15.6302 66.4963 15.9464C66.5561 16.4008 66.6558 16.5984 66.6558 16.5984H69.5461C69.3866 16.4601 69.3268 16.4008 69.2271 16.2428C69.1275 16.0254 69.1075 15.808 69.1075 15.5709V9.80098C69.1075 6.95553 66.7953 6.22441 64.5429 6.20465C60.2772 6.12561 60.2972 9.1489 60.1975 9.6429L62.709 9.68242ZM64.3635 14.8398C63.5064 14.9188 62.3901 14.6817 62.3503 13.6147C62.3104 12.5674 63.8054 12.271 64.5429 12.1129C65.1608 11.9943 65.7189 11.8363 66.1375 11.6584C66.3767 11.5596 66.4365 11.4806 66.4365 11.4806V12.8835C66.3967 13.9308 65.699 14.7212 64.3635 14.8398Z" fill="#023F88"/>
<path d="M17.1424 12.1125L20.4712 8.00244H17.0427L15.4082 10.0377L17.1424 12.1125Z" fill="#FF0000"/>
<path d="M10.9631 10.0576C11.6209 10.0576 12.199 10.354 12.6176 10.8283C12.7571 11.0061 12.8169 11.0654 12.9166 11.2037C13.3152 11.6977 13.4548 11.8755 13.674 12.1719C13.4548 12.4486 13.3152 12.6462 12.9166 13.1402C12.8169 13.2785 12.7571 13.3378 12.6176 13.5156C12.199 13.9899 11.6209 14.2863 10.9631 14.2863C9.7871 14.2863 8.83032 13.3378 8.83032 12.1719C8.83032 11.0061 9.7871 10.0576 10.9631 10.0576Z" fill="#023F88"/>
<path d="M9.3087 16.5591C8.8901 16.4603 8.51138 16.2232 8.37185 16.1442C7.05627 15.3143 6.15929 13.8718 6.15929 12.1724C6.15929 9.54432 8.31205 7.41024 10.9631 7.41024C12.2787 7.41024 13.5744 7.90424 14.6109 9.1096L14.6707 9.16888L14.7105 9.14912L9.52796 0.276855L0 16.5987H9.3087V16.5591Z" fill="#023F88"/>
<path d="M12.6973 16.559V16.5985H19.0957V16.559C19.0957 16.559 18.9961 16.5393 18.8964 16.5393C18.4778 16.48 18.139 16.3614 17.8998 16.2626C16.943 15.8674 16.1257 15.0968 15.4281 14.2866C15.4281 14.2866 14.9098 14.9585 14.4514 15.4525C13.7736 16.1638 13.0361 16.4602 12.6973 16.559Z" fill="#023F88"/>
<path d="M109.691 0C111.525 0 113 1.482 113 3.28017C113 5.07833 111.505 6.56034 109.691 6.56034C107.857 6.56034 106.382 5.07833 106.382 3.28017C106.382 1.482 107.877 0 109.691 0ZM109.691 5.9873C111.206 5.9873 112.422 4.78193 112.422 3.29993C112.422 1.81793 111.206 0.592802 109.691 0.592802C108.196 0.592802 106.96 1.79817 106.96 3.29993C106.98 4.76217 108.196 5.9873 109.691 5.9873ZM108.415 1.3832H109.87C110.787 1.3832 111.206 1.79817 111.206 2.50953C111.206 3.16161 110.807 3.47777 110.309 3.53705L111.306 5.11785H110.568L109.631 3.59633H109.133V5.13761H108.435V1.3832H108.415ZM109.113 3.02329H109.631C110.05 3.02329 110.528 3.00353 110.528 2.48977C110.528 1.97601 110.05 1.95625 109.631 1.97601H109.133V3.02329H109.113Z" fill="#023F88"/>
<path d="M8.89002 25.8659C8.89002 26.4785 8.65082 26.9922 8.23223 27.3874C7.77377 27.8024 7.19571 28.0198 6.45819 28.0198C5.52134 28.0198 4.84362 27.7036 4.4051 27.0515C4.06624 26.5377 3.88684 25.8659 3.88684 25.036C3.88684 24.2258 4.06624 23.554 4.42503 23.0205C4.88349 22.3486 5.56121 22.0127 6.49806 22.0127C7.19571 22.0127 7.77377 22.2103 8.2123 22.6055C8.65082 22.9809 8.87008 23.4749 8.89002 24.048H7.77377C7.7339 23.7911 7.65417 23.554 7.49471 23.3564C7.25551 23.06 6.93659 22.9019 6.49806 22.9019C5.58114 22.9019 5.12268 23.633 5.12268 25.0755C5.12268 25.5695 5.20242 26.0042 5.36188 26.3401C5.58114 26.8341 5.93994 27.0713 6.3984 27.0713C7.21565 27.0713 7.67411 26.6761 7.77377 25.8659H8.89002Z" fill="#023F88"/>
<path d="M16.1457 24.9962C16.1457 25.8064 15.9464 26.4782 15.5278 27.0315C15.0295 27.6836 14.3318 27.9997 13.4149 27.9997C12.498 27.9997 11.8003 27.6836 11.302 27.0315C10.8834 26.4782 10.6841 25.8064 10.6841 24.9962C10.6841 24.186 10.8834 23.4944 11.302 22.9609C11.8003 22.3088 12.498 21.9927 13.4149 21.9927C14.3318 21.9927 15.0295 22.3286 15.5278 22.9609C15.9464 23.4944 16.1457 24.186 16.1457 24.9962ZM14.9298 24.9962C14.9298 24.4627 14.8301 24.0082 14.6507 23.6525C14.3916 23.1783 13.973 22.9412 13.4149 22.9412C12.8568 22.9412 12.4382 23.1783 12.1791 23.6525C11.9797 24.0082 11.8801 24.4429 11.8801 24.9962C11.8801 25.5495 11.9797 25.9842 12.1791 26.3399C12.4382 26.8141 12.8568 27.0512 13.4149 27.0512C13.973 27.0512 14.3916 26.8141 14.6507 26.3399C14.8501 25.9842 14.9298 25.5297 14.9298 24.9962Z" fill="#023F88"/>
<path d="M22.7435 27.8222H21.3681L20.2718 25.8857L19.1954 27.8222H17.8201L19.614 24.9372L17.8998 22.0918H19.2752L20.2718 23.9492L21.3283 22.0918H22.7036L20.9495 24.8977L22.7435 27.8222Z" fill="#023F88"/>
<path d="M29.3215 23.8699C29.3215 24.2454 29.2617 24.522 29.162 24.7394C28.8431 25.431 28.3248 25.7669 27.6072 25.7669H26.1521V27.822H24.9761V22.0718H27.5076C28.3647 22.0718 28.9228 22.3879 29.1819 23.0005C29.2816 23.2376 29.3215 23.534 29.3215 23.8699ZM28.1255 23.8107C28.1255 23.5735 28.0657 23.3759 27.9461 23.2376C27.8066 23.0598 27.6072 22.9807 27.3282 22.9807H26.1521V24.8777H27.388C27.6272 24.8777 27.8265 24.7394 27.966 24.4825C28.0657 24.2849 28.1255 24.0675 28.1255 23.8107Z" fill="#023F88"/>
<path d="M36.2781 27.822H35.102L34.6635 26.5968H32.6304L32.1918 27.822H30.9958L32.9891 22.0718H34.3247L36.2781 27.822ZM34.4243 25.7076L33.6469 23.4155L32.9293 25.7076H34.4243Z" fill="#023F88"/>
<path d="M42.7562 27.822H41.5802V25.2927H39.3278V27.822H38.1517V22.0718H39.3278V24.3837H41.5802V22.0718H42.7562V27.822Z" fill="#023F88"/>
<path d="M49.5733 27.8222H48.3973V25.5498H47.3209L46.0253 27.8222H44.6499L46.1648 25.372C45.3476 25.0756 44.9489 24.5223 44.9489 23.7319C44.9489 23.2774 45.0884 22.8822 45.3874 22.5858C45.7063 22.2499 46.1449 22.0918 46.6831 22.0918H49.5733V27.8222ZM48.3973 24.6408V22.981H46.8824C46.404 22.981 46.1648 23.2774 46.1648 23.8702C46.1648 24.048 46.2246 24.2061 46.3641 24.3642C46.5037 24.542 46.6831 24.6408 46.8625 24.6408H48.3973Z" fill="#023F88"/>
<path d="M56.3904 27.8222H55.2143V25.5498H54.1379L52.8423 27.8222H51.4669L52.9818 25.372C52.1646 25.0756 51.7659 24.5223 51.7659 23.7319C51.7659 23.2774 51.9054 22.8822 52.2044 22.5858C52.5234 22.2499 52.9619 22.0918 53.5001 22.0918H56.3904V27.8222ZM55.2143 24.6408V22.981H53.6994C53.221 22.981 52.9818 23.2774 52.9818 23.8702C52.9818 24.048 53.0416 24.2061 53.1812 24.3642C53.3207 24.542 53.5001 24.6408 53.6795 24.6408H55.2143Z" fill="#023F88"/>
<path d="M65.9383 27.822H64.7623V22.9807H63.0879V26.0435C63.0879 26.5771 62.9483 26.992 62.6892 27.3082C62.3902 27.6836 61.9118 27.8615 61.3138 27.8615C61.1145 27.8615 60.955 27.822 60.8354 27.7232V26.8932C60.9152 26.9328 61.0348 26.9525 61.1743 26.9525C61.6726 26.9525 61.9118 26.498 61.9118 25.5693V22.0718H65.9184V27.822H65.9383Z" fill="#023F88"/>
<path d="M72.6557 22.0718L70.782 26.5771C70.4232 27.4268 69.8651 27.8615 69.1276 27.8615C68.9283 27.8615 68.6891 27.8417 68.4499 27.7824V26.8735C68.6093 26.9328 68.7887 26.9723 68.9681 26.9723C69.2273 26.9723 69.4266 26.8735 69.5861 26.6561C69.6857 26.498 69.7455 26.3202 69.7455 26.1423C69.7455 26.0435 69.7256 25.9645 69.6857 25.8855L67.8718 22.0915H69.1874L70.3435 24.9172L71.3202 22.0915H72.6557V22.0718Z" fill="#023F88"/>
<path d="M78.9545 27.822H77.7785V25.6681C77.4595 25.7471 77.1007 25.7669 76.7419 25.7669C75.2669 25.7669 74.5493 25.1939 74.5493 24.028V22.0718H75.7254V24.2059C75.7254 24.6406 76.0642 24.8579 76.7419 24.8579C77.1007 24.8579 77.4595 24.8184 77.7984 24.7591V22.0718H78.9744V27.822H78.9545Z" fill="#023F88"/>
<path d="M88.8213 27.822H81.3663V22.0718H82.5424V26.913H84.5157V22.0718H85.6918V26.913H87.6651V22.0718H88.8412V27.822H88.8213Z" fill="#023F88"/>
<path d="M95.3792 27.822H91.1135V22.0718H95.2396V22.9807H92.2896V24.3639H95.0204V25.2729H92.2896V26.913H95.3792V27.822Z" fill="#023F88"/>
<path d="M101.778 27.822H97.5121V22.0718H101.638V22.9807H98.6881V24.3639H101.419V25.2729H98.6881V26.913H101.778V27.822Z" fill="#023F88"/>
</svg>
