<svg width="246" height="59" viewBox="0 0 246 59" fill="none" xmlns="http://www.w3.org/2000/svg">
<g filter="url(#filter0_d)">
<path d="M73.3787 0H81.706V46.0742H73.3787V42.508C71.9821 43.9162 70.318 45.0376 68.4907 45.8134C66.8135 46.5045 65.0188 46.8631 63.2045 46.8696C58.9495 46.8957 54.8968 45.0637 52.1037 41.856C48.932 38.5114 47.2222 34.052 47.3461 29.4492C47.3461 24.2987 48.8015 20.0739 51.8361 16.775C54.6423 13.5999 58.7015 11.8136 62.937 11.8918C64.8948 11.8918 66.8265 12.296 68.6212 13.0784C70.4681 13.8803 72.1257 15.0538 73.5092 16.5077V0H73.3787ZM64.5228 19.6697C62.0625 19.598 59.6935 20.6151 58.0489 22.4406C56.3326 24.3573 55.432 26.8674 55.5364 29.4361C55.4516 32.0635 56.4044 34.6257 58.1795 36.5686C59.824 38.3941 62.193 39.4112 64.6533 39.3394C67.1137 39.4112 69.4826 38.3941 71.1272 36.5686C72.9023 34.6257 73.8551 32.0701 73.7768 29.4361C73.8812 26.8413 72.9284 24.3182 71.1337 22.4406C69.4304 20.6085 67.0223 19.598 64.5228 19.6697Z" fill="#F95D64"/>
<path d="M102.055 12.8045H110.382V16.2404C111.916 14.8778 113.658 13.7629 115.538 12.9414C117.045 12.3156 118.664 12.0026 120.295 12.0157C123.46 11.9896 126.501 13.2283 128.753 15.445C130.737 17.427 131.657 20.3282 131.657 24.1552V46.0677H123.33V31.555C123.33 27.5911 123.199 24.9571 122.801 23.6336C122.507 22.4536 121.861 21.3974 120.954 20.5955C119.995 19.8979 118.84 19.5263 117.652 19.5393C116.021 19.4806 114.441 20.1065 113.293 21.254C111.974 22.5318 111.093 24.1943 110.78 26.0068C110.519 27.063 110.382 29.3057 110.382 32.7416V46.0742H102.055V12.8045Z" fill="#F95D64"/>
<path d="M161.26 0H169.587V46.0742H161.26V42.508C159.863 43.9162 158.199 45.0376 156.372 45.8069C154.694 46.498 152.9 46.8566 151.085 46.8631C146.83 46.8892 142.778 45.0572 139.985 41.8495C136.813 38.5049 135.103 34.0455 135.227 29.4426C135.227 24.2921 136.682 20.0674 139.717 16.7685C142.523 13.5934 146.582 11.807 150.818 11.8853C152.776 11.8853 154.707 12.2895 156.502 13.0719C158.349 13.8738 160.007 15.0473 161.39 16.5012V0H161.26ZM152.534 19.6697C150.074 19.598 147.705 20.6151 146.06 22.4406C144.344 24.3573 143.443 26.8674 143.548 29.4361C143.469 32.0635 144.416 34.6257 146.191 36.5686C149.597 40.1414 155.256 40.2783 158.832 36.8815C158.936 36.7837 159.041 36.6794 159.145 36.5686C160.92 34.6257 161.867 32.0701 161.788 29.4426C161.893 26.8478 160.94 24.3247 159.145 22.4471C157.442 20.6085 155.034 19.598 152.534 19.6697Z" fill="#F95D64"/>
<path d="M208.567 31.8158H181.738C182.058 34.0325 183.187 36.0536 184.91 37.4944C186.626 38.9483 188.741 39.6068 191.384 39.6068C194.412 39.6785 197.335 38.4789 199.443 36.3078L206.446 39.6068C204.867 41.993 202.68 43.9032 200.103 45.1485C197.368 46.4067 194.392 47.0392 191.377 46.9935C186.091 46.9935 181.862 45.4092 178.56 42.1103C175.258 38.8114 173.672 34.7171 173.672 29.7035C173.672 24.6899 175.258 20.4652 178.56 17.0293C181.79 13.7369 186.235 11.9244 190.849 12.0092C196.135 12.0092 200.364 13.7239 203.666 17.0228C206.968 20.3217 208.554 24.8137 208.554 30.3554V31.8158H208.567ZM200.24 25.3484C199.718 23.5033 198.543 21.906 196.937 20.8628C195.28 19.6893 193.283 19.083 191.253 19.1482C189.06 19.096 186.913 19.7936 185.171 21.1302C184.114 21.919 183.056 23.3729 182.13 25.4853H200.233V25.3484H200.24Z" fill="#F95D64"/>
<path d="M208.169 12.8046H217.815L224.419 21.9125L230.9 12.8046H240.415L229.183 28.5169L242 46.0742H232.224L224.295 35.2516L216.496 46.0742H206.981L219.538 28.6473L208.169 12.8046Z" fill="#F95D64"/>
<path d="M21.3137 1.18665H30.0326L47.3463 46.2047H38.4904L34.9206 36.9664H16.5562L12.8559 46.2047H4L21.3137 1.18665ZM25.8037 13.0719L19.7279 28.5169H31.7489L25.8037 13.0719Z" fill="#F95D64"/>
<path d="M87.6514 0V7.65404H95.9787L87.6514 12.0092V46.0677H96.1092V0H87.6514Z" fill="#F95D64"/>
</g>
<defs>
<filter id="filter0_d" x="0" y="0" width="246" height="58.9958" filterUnits="userSpaceOnUse" color-interpolation-filters="sRGB">
<feFlood flood-opacity="0" result="BackgroundImageFix"/>
<feColorMatrix in="SourceAlpha" type="matrix" values="0 0 0 0 0 0 0 0 0 0 0 0 0 0 0 0 0 0 127 0"/>
<feOffset dy="8"/>
<feGaussianBlur stdDeviation="2"/>
<feColorMatrix type="matrix" values="0 0 0 0 0 0 0 0 0 0 0 0 0 0 0 0 0 0 0.1 0"/>
<feBlend mode="normal" in2="BackgroundImageFix" result="effect1_dropShadow"/>
<feBlend mode="normal" in="SourceGraphic" in2="effect1_dropShadow" result="shape"/>
</filter>
</defs>
</svg>
