<svg width="151" height="30" viewBox="0 0 151 30" fill="none" xmlns="http://www.w3.org/2000/svg">
<g clip-path="url(#clip0)">
<path d="M26.4619 4.63335C26.422 4.59442 26.3822 4.57495 26.3423 4.57495C26.3025 4.57495 26.2427 4.59442 26.2227 4.63335C25.4855 5.48994 24.6287 6.22972 23.6523 6.85269C21.7593 8.04023 19.5874 8.66321 17.3357 8.66321C13.0914 8.66321 10.7202 6.65801 8.74756 5.15899C8.70771 5.12005 8.68778 5.08112 8.68778 5.02271C8.68778 4.96431 8.70771 4.92537 8.74756 4.88644C11.7365 2.68657 14.2472 1.24594 16.7579 0.36989C16.8376 0.350422 16.8774 0.27255 16.8774 0.194679C16.8575 0.116807 16.7977 0.0584036 16.718 0.0584036C16.2597 0.0194679 15.8014 0 15.363 0C6.87451 0 0 6.71642 0 15.0097C0 19.5847 2.09224 23.6729 5.39997 26.4179C5.43983 26.4568 5.4996 26.4568 5.55938 26.4568C5.61916 26.4374 5.65901 26.3984 5.67894 26.34L6.29665 24.3932C6.31657 24.3154 6.4162 24.257 6.49591 24.2764C14.7055 26.0286 18.2324 21.6677 17.6545 18.9812C17.1364 16.7034 13.3106 14.6593 7.6317 17.7547C7.59184 17.7742 7.53207 17.7742 7.49221 17.7742C7.47229 17.7742 7.45236 17.7547 7.45236 17.7547L7.43244 17.7352C7.37266 17.6963 7.35273 17.6379 7.37266 17.5795L9.28556 8.04023C9.30549 7.98183 9.32541 7.94289 9.38519 7.92343C9.44497 7.90396 9.48482 7.90396 9.5446 7.94289C10.1025 8.29331 11.6966 9.26671 13.4302 10.2985C13.49 10.3374 13.5099 10.3958 13.5099 10.4543C13.4501 10.8631 13.2309 12.3816 13.1114 12.9851C13.0914 13.0435 13.1114 13.1019 13.1712 13.1408C13.211 13.1798 13.2708 13.1992 13.3306 13.1798C22.7755 10.6879 24.7482 16.5088 24.5091 19.2732C23.9711 25.5419 16.8973 28.8709 10.5808 28.9487C10.5011 28.9487 10.4214 29.0071 10.4214 29.085C10.4014 29.1629 10.4612 29.2408 10.5409 29.2602C12.0553 29.7469 13.6693 30.0195 15.363 30.0195C23.8515 30.0195 30.726 23.303 30.726 15.0097C30.7061 10.9799 29.0921 7.33939 26.4619 4.63335Z" fill="white"/>
<path d="M26.4426 1.05133C21.2619 0.447826 15.8619 1.73271 11.3984 5.04224C16.4995 8.81901 23.9718 6.91116 26.4426 1.05133Z" fill="white"/>
<path d="M111.587 20.1299C110.511 20.1299 109.973 19.2538 109.973 17.8911C109.973 15.9832 111.069 13.5497 112.842 13.5497C113.918 13.5497 114.436 14.3479 114.436 15.7691C114.436 17.638 113.44 20.1299 111.587 20.1299ZM113.081 11.4277C109.674 11.4277 107.123 14.3868 107.123 17.9495C107.123 20.2856 108.618 22.2324 111.328 22.2324C114.815 22.2324 117.246 19.429 117.246 15.7107C117.246 13.2772 115.731 11.4277 113.081 11.4277ZM125.615 12.3427C125.176 14.9514 123.801 16.684 122.486 16.684C121.789 16.684 121.55 16.1973 121.769 15.0682L122.108 13.0436C122.167 12.7126 122.068 12.3622 121.849 12.1091C121.629 11.856 121.291 11.7003 120.952 11.7003H119.557L118.919 15.185C118.84 15.6522 118.78 16.0611 118.78 16.4504C118.78 18.1636 119.617 19.1175 121.111 19.1175C122.984 19.1175 124.2 17.9105 124.977 16.6256H125.017C124.698 18.1831 124.3 20.5192 124.14 21.9793H126.85C126.89 21.2201 127.069 19.5264 127.587 16.7035L128.524 11.7003H125.734L125.615 12.3427ZM137.032 17.93C136.733 17.307 136.435 16.9371 136.136 16.6451L140.739 11.7003H138.208C137.77 11.7003 137.351 11.8949 137.072 12.2064L133.844 15.8469H133.266L133.904 12.479C133.944 12.2843 133.884 12.0702 133.764 11.9144C133.625 11.7587 133.446 11.6808 133.226 11.6808H131.214L129.341 21.9598H131.373C131.832 21.9598 132.23 21.6289 132.31 21.2006L132.947 17.7158H133.266C133.884 17.7158 134.263 18.3778 134.92 19.7405C135.677 21.3369 136.056 21.9598 137.411 21.9598H138.507L138.905 19.9157H138.666C138.088 19.9352 137.67 19.3122 137.032 17.93ZM147.832 14.1727C147.115 18.0079 145.74 19.8768 144.604 19.8768C143.927 19.8768 143.628 19.3706 143.628 18.3972C143.628 15.4965 145.182 13.4913 146.916 13.4913C147.314 13.4913 147.713 13.5497 147.932 13.6276L147.832 14.1727ZM147.334 11.4277C143.429 11.4277 140.719 14.4452 140.719 18.8644C140.719 20.967 141.815 22.2324 143.429 22.2324C145.142 22.2324 146.158 20.9864 146.995 19.4874H147.035C146.936 19.9352 146.836 20.4997 146.776 21.0448C146.756 21.2785 146.816 21.5315 146.995 21.7068C147.155 21.882 147.394 21.9793 147.633 21.9793H149.446C149.466 21.2201 149.606 19.5264 150.104 16.7035L150.981 12.0118C150.502 11.8171 149.207 11.4277 147.334 11.4277ZM99.8104 20.2077C99.2126 20.2077 98.9137 20.1299 98.7344 20.0715L98.834 19.5069C99.631 15.7301 100.986 13.8028 102.221 13.8028C102.879 13.8028 103.178 14.4258 103.178 15.3408C103.178 18.3778 101.663 20.2077 99.8104 20.2077ZM103.397 11.4277C101.564 11.4277 100.587 12.6542 99.7307 14.1143H99.6908C99.7904 13.7444 99.8701 13.394 99.9498 13.0436C100.03 12.7126 99.9299 12.3816 99.7307 12.1286C99.5115 11.8755 99.1927 11.7197 98.8539 11.7197H97.4989L94.7093 26.5932H96.2834C96.9809 26.5932 97.5786 26.1065 97.7181 25.4251L98.3358 22.0961C98.555 22.1545 99.0332 22.2519 99.8104 22.2519C103.457 22.2519 106.087 19.3511 106.087 14.9319C106.087 12.8099 105.051 11.4277 103.397 11.4277ZM88.7912 16.392C89.1499 14.893 90.0665 13.5692 91.3816 13.5692C92.0591 13.5692 92.3779 13.8417 92.3779 14.4063C92.3779 15.4965 90.9433 16.1779 88.7912 16.392ZM95.068 14.0948C95.068 12.4011 93.8525 11.4277 91.8599 11.4277C88.4923 11.4277 85.8222 14.27 85.8222 18.1247C85.8222 20.5582 87.1971 22.2324 89.8473 22.2324C91.9196 22.2324 93.2348 21.4342 94.0717 20.7528L92.9757 18.9423C92.3182 19.4874 91.4016 20.0131 90.3056 20.0131C89.1499 20.0131 88.7115 19.3122 88.6517 18.1247C92.1388 17.7742 95.068 16.6062 95.068 14.0948ZM91.0628 8.85796L92.079 8.99423C92.358 9.03317 92.5772 9.0721 92.6768 8.64381L93.0156 7.47574C93.0953 7.10585 92.9956 7.02798 92.637 6.96957L91.6805 6.85277C91.4813 6.8333 91.1824 6.75543 91.0827 7.18372L90.744 8.37126C90.6643 8.66328 90.744 8.79955 91.0628 8.85796ZM60.2172 6.95011C71.3758 6.50235 89.0303 8.527 89.0303 8.527C89.2495 8.56594 89.4488 8.4686 89.5086 8.27392L89.6879 7.72882L89.9868 6.79436C90.0067 6.73596 90.0067 6.67756 89.9669 6.61915C89.927 6.56075 89.8872 6.54128 89.8075 6.52181C87.6156 6.22979 71.5153 4.18567 59.7988 4.47769C48.7996 4.75024 39.5339 6.8917 37.0631 7.53414C36.8638 7.57308 36.7243 7.72882 36.6845 7.9235L36.4254 9.30572C36.4055 9.38359 36.4254 9.44199 36.4852 9.5004C36.545 9.5588 36.6048 9.57827 36.6845 9.5588C38.697 9.13051 41.4667 8.66328 45.1331 8.21552L42.6822 21.5121C42.6225 21.7457 42.6225 21.9988 43.0608 21.9988H45.432C45.5914 21.9988 45.7907 21.9598 45.8306 21.59L48.142 8.64381C48.142 8.62434 48.3014 7.9235 49.0785 7.74829H49.0984C50.0947 7.65095 51.8084 7.53414 52.8645 7.45627L50.3139 21.5315C50.2143 22.0182 50.4733 21.9988 50.6527 21.9988H53.1434C53.3427 21.9988 53.6217 21.9598 53.7213 21.5121L56.1124 8.04031C56.1124 8.04031 56.2718 7.33946 57.029 7.16425C58.2047 7.08638 58.9818 7.00851 60.2172 6.95011ZM63.8637 16.1779H62.3892C61.4925 16.1779 61.0541 15.8859 61.0541 15.2629C61.0541 14.2506 61.6917 13.7444 62.9471 13.7444H64.3021L63.8637 16.1779ZM67.2113 11.7197H63.2061C60.2371 11.7197 58.2445 12.9657 58.2445 15.2824C58.2445 16.5088 59.1213 17.2875 60.0179 17.3849V17.4044C59.6792 17.5406 59.2807 17.9495 58.8822 18.4362C58.1449 19.3511 57.6268 19.9352 57.1685 19.9352C57.0888 19.9352 57.0091 19.9936 56.9892 20.0909L56.7501 21.7068C56.7301 21.7846 56.7501 21.843 56.8098 21.9014C56.8497 21.9598 56.9294 21.9793 56.9892 21.9793H57.846C59.201 21.9793 59.6991 21.4537 61.0342 19.7989C62.0703 18.4751 62.4489 18.0468 63.0866 18.0468H63.5449L62.8873 21.6873C62.8674 21.7652 62.8873 21.8236 62.9471 21.882C62.9869 21.9404 63.0666 21.9793 63.1463 21.9793H65.4578C65.5773 21.9793 65.677 21.9014 65.6969 21.7846L67.4902 11.9923C67.5102 11.9144 67.4902 11.856 67.4305 11.7976C67.3507 11.7392 67.271 11.7197 67.2113 11.7197ZM93.9919 9.26678L94.9085 9.42253C95.1676 9.46146 95.4067 9.5004 95.4864 9.0721L95.8052 7.96244C95.8849 7.61201 95.7853 7.53414 95.4465 7.49521L94.5897 7.33946C94.3905 7.32 94.1115 7.24212 94.0119 7.65095L93.6731 8.79955C93.6133 9.0721 93.6731 9.22785 93.9919 9.26678ZM82.2754 11.4277C80.482 11.4277 79.406 12.5763 78.5293 13.9196H78.4894C78.4894 12.4985 77.9116 11.4277 76.2577 11.4277C74.3249 11.4277 73.2688 12.8683 72.5714 14.0364H72.5315C72.6511 13.6081 72.7707 12.9657 72.8703 12.4206C72.9101 12.2454 72.8504 12.0507 72.7308 11.9144C72.6112 11.7781 72.4319 11.7003 72.2526 11.7003H70.2799L68.5065 21.2979C68.4666 21.4537 68.5264 21.6289 68.626 21.7652C68.7456 21.9014 68.905 21.9598 69.0644 21.9598H71.1566L71.316 21.1227C72.3522 15.3992 73.767 13.8223 74.9027 13.8223C75.7197 13.8223 75.7994 14.5815 75.6201 15.5938L74.5441 21.2201C74.5042 21.3953 74.564 21.5899 74.6836 21.7457C74.8031 21.882 74.9824 21.9793 75.1817 21.9793H77.1942L77.3537 21.1422C78.3699 15.4576 79.7846 13.8417 80.9603 13.8417C81.7374 13.8417 81.837 14.5426 81.6577 15.6133L80.5817 21.3563C80.5418 21.5121 80.6016 21.6678 80.7012 21.8041C80.8009 21.9209 80.9603 21.9988 81.1197 21.9988H83.2319L84.4274 15.477C84.5271 14.9514 84.5868 14.4842 84.5868 14.0559C84.547 12.3038 83.7101 11.4277 82.2754 11.4277Z" fill="white"/>
</g>
<defs>
<clipPath id="clip0">
<rect width="151" height="30" fill="white"/>
</clipPath>
</defs>
</svg>
